<svg xmlns="http://www.w3.org/2000/svg" xmlns:xlink="http://www.w3.org/1999/xlink" version="1.1" width="1512" height="581.5"><g id="Bank system App Diagram"><g id="Bank system"><rect width="264" height="240" rx="8" ry="8" fill-opacity="0.02" fill="#000000" stroke-opacity="1" stroke-width="2" stroke="#cfd2d2" opacity="1" x="904" y="32"></rect><text font-family="IBM Plex Sans Medium, Arial, sans-serif" font-size="15" font-weight="500" fill="#0c0d0d" opacity="1" x="920" y="63.375"><tspan dy="0" x="920">Bank system</tspan></text><g id="System" opacity="1"><text font-family="Courier New, monospace" font-size="12" text-anchor="middle" fill="#595f61" x="1036" y="260.6552734375"><tspan dy="0" x="1036">System</tspan></text></g></g><g id="Connection"><polyline points="216,160 251.23,159.82999999999998 256.26,159.38 257.17,158.73000000000002 254.82999999999998,157.26999999999998 255.74,156.63 260.77,156.17000000000002 296,156" fill="none" stroke-width="1" stroke="#adb3b3" opacity="1"></polyline></g><g id="Sends data to"><polyline points="464,156 584,156" fill="none" stroke-width="1" stroke="#adb3b3" opacity="1"></polyline></g><g id="Sends data to"><rect width="99.836" height="22.2" x="474.082" y="144.9" rx="4" ry="4" fill-opacity="0.8" fill="#e5e7e8" stroke-opacity="1" stroke-width="1" stroke="#cfd2d2" opacity="0.8"></rect><g opacity="1" fill="#434647"><text font-family="IBM Plex Sans Medium, Arial, sans-serif" font-size="14" text-anchor="middle" x="524" y="161.24999999999997"><tspan dy="0" x="524">Sends data to</tspan></text></g></g><g id="Sends data to"><polyline points="776,156 840.01,156.63 865.18,158.95999999999998 881.47,159.7 936,160" fill="none" stroke-width="1" stroke="#adb3b3" opacity="1"></polyline></g><g id="Sends data to"><rect width="99.836" height="22.2" x="806.0747350482949" y="147.0095301018088" rx="4" ry="4" fill-opacity="0.8" fill="#e5e7e8" stroke-opacity="1" stroke-width="1" stroke="#cfd2d2" opacity="0.8"></rect><g opacity="1" fill="#434647"><text font-family="IBM Plex Sans Medium, Arial, sans-serif" font-size="14" text-anchor="middle" x="855.9927350482949" y="163.35953010180876"><tspan dy="0" x="855.9927350482949">Sends data to</tspan></text></g></g><g id="Sends data to"><polyline points="1136,160 1190.6599999999999,159.64999999999998 1233.3400000000001,156.35000000000002 1288,156" fill="none" stroke-width="1" stroke="#adb3b3" opacity="1"></polyline></g><g id="Sends data to"><rect width="99.836" height="22.2" x="1162.082" y="146.9" rx="4" ry="4" fill-opacity="0.8" fill="#e5e7e8" stroke-opacity="1" stroke-width="1" stroke="#cfd2d2" opacity="0.8"></rect><g opacity="1" fill="#434647"><text font-family="IBM Plex Sans Medium, Arial, sans-serif" font-size="14" text-anchor="middle" x="1212" y="163.24999999999997"><tspan dy="0" x="1212">Sends data to</tspan></text></g></g><g id="Sends data to"><polyline points="1384,232 1383.69,273.24 1381.42,298.87 1377.51,315.65999999999997 1375.14,321.84000000000003 1364.86,342.15999999999997 1360.38,355.85 1358.58,365.13 1356.31,390.76 1356,432" fill="none" stroke-width="1" stroke="#adb3b3" opacity="1"></polyline></g><g id="Sends data to"><rect width="99.836" height="22.2" x="1320.0821746657548" y="320.8996547462903" rx="4" ry="4" fill-opacity="0.8" fill="#e5e7e8" stroke-opacity="1" stroke-width="1" stroke="#cfd2d2" opacity="0.8"></rect><g opacity="1" fill="#434647"><text font-family="IBM Plex Sans Medium, Arial, sans-serif" font-size="14" text-anchor="middle" x="1370.0001746657547" y="337.24965474629033"><tspan dy="0" x="1370.0001746657547">Sends data to</tspan></text></g></g><a href="https://app.icepanel.io/landscapes/pMzFyeYjGnWRGy8yUsah/versions/latest/model/objects?object=FgZKN9J8uB&amp;focus=FgZKN9J8uB" id="Web App" target="_blank"><rect width="184" height="112" rx="8" ry="8" fill-opacity="0.8" fill="#f5f6f6" stroke-opacity="1" stroke-width="1" stroke="#adb3b3" opacity="1" x="32" y="104"></rect><text font-family="IBM Plex Sans Medium, Arial, sans-serif" font-size="21" font-weight="500" text-anchor="middle" fill="#0c0d0d" opacity="1" x="124" y="149.875"><tspan dy="0" x="124">Web App</tspan></text><g opacity="1"><text font-family="IBM Plex Sans, Arial, sans-serif" font-size="10" text-anchor="middle" fill="#595f61" x="124" y="163.75"><tspan dy="0" x="124">The user interface where the</tspan></text><text font-family="IBM Plex Sans, Arial, sans-serif" font-size="10" text-anchor="middle" fill="#595f61" x="124" y="175.75"><tspan dy="0" x="124">customer initiates a transfer or views</tspan></text><text font-family="IBM Plex Sans, Arial, sans-serif" font-size="10" text-anchor="middle" fill="#595f61" x="124" y="187.75"><tspan dy="0" x="124">their balance.</tspan></text></g><g id="System" opacity="1"><text font-family="Courier New, monospace" font-size="12" text-anchor="middle" fill="#595f61" x="124" y="204.6552734375"><tspan dy="0" x="124">System</tspan></text></g></a><a href="https://app.icepanel.io/landscapes/pMzFyeYjGnWRGy8yUsah/versions/latest/model/objects?object=4NWrpcS5ur&amp;focus=4NWrpcS5ur" id="API" target="_blank"><rect width="168" height="120" rx="8" ry="8" fill-opacity="0.8" fill="#f5f6f6" stroke-opacity="1" stroke-width="1" stroke="#adb3b3" opacity="1" x="296" y="96"></rect><text font-family="IBM Plex Sans Medium, Arial, sans-serif" font-size="24" font-weight="500" text-anchor="middle" fill="#0c0d0d" opacity="1" x="379.99999999999994" y="145"><tspan dy="0" x="379.99999999999994">API</tspan></text><g opacity="1"><text font-family="IBM Plex Sans, Arial, sans-serif" font-size="10" text-anchor="middle" fill="#595f61" x="380.00000000000006" y="155.75"><tspan dy="0" x="380.00000000000006">The &quot;front door&quot; for all requests.</tspan></text><text font-family="IBM Plex Sans, Arial, sans-serif" font-size="10" text-anchor="middle" fill="#595f61" x="380.00000000000006" y="167.75"><tspan dy="0" x="380.00000000000006">It handles security, rate limiting,</tspan></text><text font-family="IBM Plex Sans, Arial, sans-serif" font-size="10" text-anchor="middle" fill="#595f61" x="380" y="179.75"><tspan dy="0" x="380">and routes traffic to the correct</tspan></text><text font-family="IBM Plex Sans, Arial, sans-serif" font-size="10" text-anchor="middle" fill="#595f61" x="380.00000000000006" y="191.75"><tspan dy="0" x="380.00000000000006">internal servic</tspan></text></g><g id="System" opacity="1"><text font-family="Courier New, monospace" font-size="12" text-anchor="middle" fill="#595f61" x="380" y="204.6552734375"><tspan dy="0" x="380">System</tspan></text></g></a><a href="https://app.icepanel.io/landscapes/pMzFyeYjGnWRGy8yUsah/versions/latest/model/objects?object=A1im1yBqt7&amp;focus=A1im1yBqt7" id="Gateway Client" target="_blank"><rect width="192" height="136" rx="8" ry="8" fill-opacity="0.8" fill="#f5f6f6" stroke-opacity="1" stroke-width="1" stroke="#adb3b3" opacity="1" x="584" y="88"></rect><text font-family="IBM Plex Sans Medium, Arial, sans-serif" font-size="24" font-weight="500" text-anchor="middle" fill="#0c0d0d" opacity="1" x="680" y="160.99999999999997"><tspan dy="0" x="680">Gateway Client</tspan></text><g id="System" opacity="1"><text font-family="Courier New, monospace" font-size="12" text-anchor="middle" fill="#595f61" x="680" y="212.6552734375"><tspan dy="0" x="680">System</tspan></text></g></a><a href="https://app.icepanel.io/landscapes/pMzFyeYjGnWRGy8yUsah/versions/latest/model/objects?object=fC3BIDODNz&amp;focus=fC3BIDODNz" id="Core Banking System (CBS)" target="_blank"><rect width="192" height="152" rx="8" ry="8" fill-opacity="0.8" fill="#f5f6f6" stroke-opacity="1" stroke-width="1" stroke="#adb3b3" opacity="1" x="1288" y="80"></rect><text font-family="IBM Plex Sans Medium, Arial, sans-serif" font-size="18" font-weight="500" text-anchor="middle" fill="#0c0d0d" opacity="1" x="1384.0000000000002" y="124.75000000000001"><tspan dy="0" x="1384.0000000000002">Core Banking System</tspan></text><text font-family="IBM Plex Sans Medium, Arial, sans-serif" font-size="18" font-weight="500" text-anchor="middle" fill="#0c0d0d" opacity="1" x="1384" y="144.75"><tspan dy="0" x="1384">(CBS)</tspan></text><g opacity="1"><text font-family="IBM Plex Sans, Arial, sans-serif" font-size="10" text-anchor="middle" fill="#595f61" x="1384" y="169.75"><tspan dy="0" x="1384">The central ledger. This is the &quot;source</tspan></text><text font-family="IBM Plex Sans, Arial, sans-serif" font-size="10" text-anchor="middle" fill="#595f61" x="1384" y="181.75"><tspan dy="0" x="1384">of truth&quot; that records every transaction</tspan></text><text font-family="IBM Plex Sans, Arial, sans-serif" font-size="10" text-anchor="middle" fill="#595f61" x="1383.9999999999998" y="193.75"><tspan dy="0" x="1383.9999999999998">and updates account balances</tspan></text></g><g id="System" opacity="1"><text font-family="Courier New, monospace" font-size="12" text-anchor="middle" fill="#595f61" x="1384" y="220.6552734375"><tspan dy="0" x="1384">System</tspan></text></g></a><a href="https://app.icepanel.io/landscapes/pMzFyeYjGnWRGy8yUsah/versions/latest/model/objects?object=ydl5NG3r7A&amp;focus=ydl5NG3r7A" id="Link" target="_blank"><path d="M1272 441C1272 429 1440 429 1440 441L1440 537Q1356 562 1272 537L1272 441Z " fill-opacity="0.8" fill="#f5f6f6" opacity="1"></path><path d="M1272 441C1272 429 1440 429 1440 441C1440 453 1272 453 1272 441Z " fill="#cfd2d2" opacity="1"></path><path d="M1272 441C1272 429 1440 429 1440 441L1440 537Q1356 562 1272 537L1272 441Z " fill-opacity="0" stroke-width="1" stroke="#adb3b3" opacity="1"></path><text font-family="IBM Plex Sans Medium, Arial, sans-serif" font-size="24" font-weight="500" text-anchor="middle" fill="#0c0d0d" opacity="1" x="1356" y="501"><tspan dy="0" x="1356">Bank databse</tspan></text><g id="Store" opacity="1"><text font-family="Courier New, monospace" font-size="12" text-anchor="middle" fill="#595f61" x="1356" y="538.6552734375"><tspan dy="0" x="1356">Store</tspan></text></g></a><a href="https://app.icepanel.io/landscapes/pMzFyeYjGnWRGy8yUsah/versions/latest/model/objects?object=K0M9uz5CRD&amp;focus=K0M9uz5CRD" id="Paymeny services" target="_blank"><rect width="200" height="128" rx="8" ry="8" fill-opacity="0.8" fill="#f5f6f6" stroke-opacity="1" stroke-width="1" stroke="#adb3b3" opacity="1" x="936" y="96"></rect><text font-family="IBM Plex Sans Medium, Arial, sans-serif" font-size="24" font-weight="500" text-anchor="middle" fill="#0c0d0d" opacity="1" x="1036" y="152"><tspan dy="0" x="1036">Paymeny</tspan></text><text font-family="IBM Plex Sans Medium, Arial, sans-serif" font-size="24" font-weight="500" text-anchor="middle" fill="#0c0d0d" opacity="1" x="1036" y="177.99999999999997"><tspan dy="0" x="1036">services</tspan></text><g id="System" opacity="1"><text font-family="Courier New, monospace" font-size="12" text-anchor="middle" fill="#595f61" x="1036" y="212.6552734375"><tspan dy="0" x="1036">System</tspan></text></g></a><g id="Connection"><circle r="4" fill="#adb3b3" opacity="1" cx="296" cy="156"></circle><circle r="4" fill="#adb3b3" opacity="1" cx="216" cy="160"></circle></g><g id="Sends data to"><polygon points="576,83.99999999999997 568,99.99999999999997 584,99.99999999999997 576,83.99999999999997" fill="#adb3b3" opacity="1" transform="matrix(6.123233995736766e-17,1,-1,6.123233995736766e-17,668,-420)"></polygon><circle r="4" fill="#adb3b3" opacity="1" cx="464" cy="156"></circle></g><g id="Sends data to"><polygon points="927.8235895858611,87.78042524264538 919.8235895858611,103.78042524264536 935.8235895858611,103.78042524264536 927.8235895858611,87.78042524264538" fill="#adb3b3" opacity="1" transform="matrix(-0.005501475518626901,0.9999848667690516,-0.9999848667690516,-0.005501475518626901,1028.8834956049084,-767.3266267567136)"></polygon><circle r="4" fill="#adb3b3" opacity="1" cx="776" cy="156"></circle></g><g id="Sends data to"><polygon points="1280.204406836875,84.25677954498879 1272.204406836875,100.2567795449888 1288.204406836875,100.2567795449888 1280.204406836875,84.25677954498879" fill="#adb3b3" opacity="1" transform="matrix(0.006403088638973512,0.9999795000178161,-0.9999795000178161,0.006403088638973512,1364.0577899895284,-1124.7176662972038)"></polygon><circle r="4" fill="#adb3b3" opacity="1" cx="1136" cy="160"></circle></g><g id="Sends data to"><polygon points="1291.8205017652626,352.2416664163495 1283.8205017652626,368.2416664163495 1299.8205017652626,368.2416664163495 1291.8205017652626,352.2416664163495" fill="#adb3b3" opacity="1" transform="matrix(-0.9999717487496009,-0.007516761447922127,0.007516761447922127,-0.9999717487496009,2645.1362896423266,793.9420216941351)"></polygon><circle r="4" fill="#adb3b3" opacity="1" cx="1384" cy="232"></circle></g></g></svg>