<svg xmlns="http://www.w3.org/2000/svg" xmlns:xlink="http://www.w3.org/1999/xlink" version="1.1" width="1120" height="576"><g id="Fronend/Backend App Diagram"><g id="Fronend/Backend"><rect width="768" height="512" rx="8" ry="8" fill-opacity="0.02" fill="#000000" stroke-opacity="1" stroke-width="2" stroke="#cfd2d2" opacity="1" x="320" y="32"></rect><text font-family="IBM Plex Sans Medium, Arial, sans-serif" font-size="15" font-weight="500" fill="#0c0d0d" opacity="1" x="336" y="63.375"><tspan dy="0" x="336">Fronend/Backend</tspan></text><g opacity="1"><text font-family="IBM Plex Sans, Arial, sans-serif" font-size="14" text-anchor="middle" fill="#595f61" x="704" y="509.25"><tspan dy="0" x="704">React, Vue, or HTML</tspan></text></g><g id="System" opacity="1"><text font-family="Courier New, monospace" font-size="12" text-anchor="middle" fill="#595f61" x="704" y="532.6552734375"><tspan dy="0" x="704">System</tspan></text></g></g><g id="Sends data to"><polyline points="488,144 608,144" fill="none" stroke-width="1" stroke="#adb3b3" opacity="1"></polyline></g><g id="Sends data to"><rect width="99.836" height="22.2" x="498.082" y="132.9" rx="4" ry="4" fill-opacity="0.8" fill="#e5e7e8" stroke-opacity="1" stroke-width="1" stroke="#cfd2d2" opacity="0.8"></rect><g opacity="1" fill="#434647"><text font-family="IBM Plex Sans Medium, Arial, sans-serif" font-size="14" text-anchor="middle" x="548" y="149.25"><tspan dy="0" x="548">Sends data to</tspan></text></g></g><g id="Sends data to"><polyline points="776,144 817.87,143.83 828.13,143.38 843.87,140.63 896,140" fill="none" stroke-width="1" stroke="#adb3b3" opacity="1"></polyline></g><g id="Sends data to"><rect width="99.836" height="22.2" x="786.0788467132793" y="130.9055509236647" rx="4" ry="4" fill-opacity="0.8" fill="#e5e7e8" stroke-opacity="1" stroke-width="1" stroke="#cfd2d2" opacity="0.8"></rect><g opacity="1" fill="#434647"><text font-family="IBM Plex Sans Medium, Arial, sans-serif" font-size="14" text-anchor="middle" x="835.9968467132793" y="147.25555092366469"><tspan dy="0" x="835.9968467132793">Sends data to</tspan></text></g></g><g id="sends data to"><polyline points="988,200 988,224 987.3,234.95 985.25,244.57 981.94,252.95 977.47,260.17 971.9,266.33 965.34,271.51 957.87,275.78 949.57,279.25 940.53,281.99 930.84,284.09 909.86,286.7 887.32,287.78 828.68,288.22 795.41,290.37 775.47,294.01 766.43,296.75 758.13,300.22 750.66,304.49 744.1,309.67 738.53,315.83 734.06,323.05 730.75,331.43 728.7,341.05 728,352 728,376" fill="none" stroke-width="1" stroke="#adb3b3" opacity="1"></polyline></g><g id="sends data to"><rect width="98.366" height="22.2" x="808.8238075161307" y="276.899948920411" rx="4" ry="4" fill-opacity="0.8" fill="#e5e7e8" stroke-opacity="1" stroke-width="1" stroke="#cfd2d2" opacity="0.8"></rect><g opacity="1" fill="#434647"><text font-family="IBM Plex Sans Medium, Arial, sans-serif" font-size="14" text-anchor="middle" x="858.0068075161307" y="293.24994892041104"><tspan dy="0" x="858.0068075161307">sends data to</tspan></text></g></g><g id="Sends data to"><polyline points="640,432 288,432" fill="none" stroke-width="1" stroke="#adb3b3" opacity="1"></polyline></g><g id="Sends data to"><rect width="99.836" height="22.2" x="414.082" y="420.90000000000003" rx="4" ry="4" fill-opacity="0.8" fill="#e5e7e8" stroke-opacity="1" stroke-width="1" stroke="#cfd2d2" opacity="0.8"></rect><g opacity="1" fill="#434647"><text font-family="IBM Plex Sans Medium, Arial, sans-serif" font-size="14" text-anchor="middle" x="464" y="437.25000000000006"><tspan dy="0" x="464">Sends data to</tspan></text></g></g><a href="https://app.icepanel.io/landscapes/pMzFyeYjGnWRGy8yUsah/versions/latest/model/objects?object=jg77vWhw7J&amp;focus=jg77vWhw7J" id="Registration" target="_blank"><rect width="152" height="112" rx="8" ry="8" fill-opacity="0.8" fill="#f5f6f6" stroke-opacity="1" stroke-width="1" stroke="#adb3b3" opacity="1" x="336" y="88"></rect><text font-family="IBM Plex Sans Medium, Arial, sans-serif" font-size="24" font-weight="500" text-anchor="middle" fill="#0c0d0d" opacity="1" x="411.99999999999994" y="149"><tspan dy="0" x="411.99999999999994">Registration</tspan></text><g id="System" opacity="1"><text font-family="Courier New, monospace" font-size="12" text-anchor="middle" fill="#595f61" x="412" y="188.6552734375"><tspan dy="0" x="412">System</tspan></text></g></a><a href="https://app.icepanel.io/landscapes/pMzFyeYjGnWRGy8yUsah/versions/latest/model/objects?object=cxLnuPfXDc&amp;focus=cxLnuPfXDc" id="Verification" target="_blank"><rect width="168" height="112" rx="8" ry="8" fill-opacity="0.8" fill="#f5f6f6" stroke-opacity="1" stroke-width="1" stroke="#adb3b3" opacity="1" x="608" y="88"></rect><text font-family="IBM Plex Sans Medium, Arial, sans-serif" font-size="24" font-weight="500" text-anchor="middle" fill="#0c0d0d" opacity="1" x="692" y="149"><tspan dy="0" x="692">Verification</tspan></text><g id="System" opacity="1"><text font-family="Courier New, monospace" font-size="12" text-anchor="middle" fill="#595f61" x="692" y="188.6552734375"><tspan dy="0" x="692">System</tspan></text></g></a><a href="https://app.icepanel.io/landscapes/pMzFyeYjGnWRGy8yUsah/versions/latest/model/objects?object=qGF0lUmvtk&amp;focus=qGF0lUmvtk" id="Upload picture" target="_blank"><rect width="184" height="120" rx="8" ry="8" fill-opacity="0.8" fill="#f5f6f6" stroke-opacity="1" stroke-width="1" stroke="#adb3b3" opacity="1" x="896" y="80"></rect><text font-family="IBM Plex Sans Medium, Arial, sans-serif" font-size="24" font-weight="500" text-anchor="middle" fill="#0c0d0d" opacity="1" x="988" y="145"><tspan dy="0" x="988">Upload picture</tspan></text><g id="System" opacity="1"><text font-family="Courier New, monospace" font-size="12" text-anchor="middle" fill="#595f61" x="988" y="188.6552734375"><tspan dy="0" x="988">System</tspan></text></g></a><a href="https://app.icepanel.io/landscapes/pMzFyeYjGnWRGy8yUsah/versions/latest/model/objects?object=YVXb5RRrwI&amp;focus=YVXb5RRrwI" id="Login-" target="_blank"><rect width="176" height="112" rx="8" ry="8" fill-opacity="0.8" fill="#f5f6f6" stroke-opacity="1" stroke-width="1" stroke="#adb3b3" opacity="1" x="640" y="376"></rect><text font-family="IBM Plex Sans Medium, Arial, sans-serif" font-size="24" font-weight="500" text-anchor="middle" fill="#0c0d0d" opacity="1" x="728" y="437"><tspan dy="0" x="728">Login-</tspan></text><g id="System" opacity="1"><text font-family="Courier New, monospace" font-size="12" text-anchor="middle" fill="#595f61" x="728" y="476.6552734375"><tspan dy="0" x="728">System</tspan></text></g></a><a href="https://app.icepanel.io/landscapes/pMzFyeYjGnWRGy8yUsah/versions/latest/model/objects?object=lcHtDBx8ek&amp;focus=lcHtDBx8ek" id="shipement" target="_blank"><rect width="256" height="128" rx="8" ry="8" fill-opacity="0.8" fill="#f5f6f6" stroke-opacity="1" stroke-width="1" stroke="#adb3b3" opacity="1" x="32" y="368"></rect><text font-family="IBM Plex Sans Medium, Arial, sans-serif" font-size="24" font-weight="500" text-anchor="middle" fill="#0c0d0d" opacity="1" x="160" y="437"><tspan dy="0" x="160">shipement</tspan></text><g id="System" opacity="1"><text font-family="Courier New, monospace" font-size="12" text-anchor="middle" fill="#595f61" x="160" y="484.6552734375"><tspan dy="0" x="160">System</tspan></text></g></a><g id="Sends data to"><polygon points="600,71.99999999999997 592,87.99999999999997 608,87.99999999999997 600,71.99999999999997" fill="#adb3b3" opacity="1" transform="matrix(6.123233995736766e-17,1,-1,6.123233995736766e-17,680,-456)"></polygon><circle r="4" fill="#adb3b3" opacity="1" cx="488" cy="144"></circle></g><g id="Sends data to"><polygon points="888.3849448316149,68.48570813624843 880.3849448316149,84.48570813624843 896.3849448316149,84.48570813624843 888.3849448316149,68.48570813624843" fill="#adb3b3" opacity="1" transform="matrix(0.012084289254858745,0.999926982310811,-0.999926982310811,0.012084289254858745,953.7452068250908,-749.1476781227753)"></polygon><circle r="4" fill="#adb3b3" opacity="1" cx="776" cy="144"></circle></g><g id="sends data to"><polygon points="664.0000000000001,295.9999999999999 656.0000000000001,311.9999999999999 672.0000000000001,311.9999999999999 664.0000000000001,295.9999999999999" fill="#adb3b3" opacity="1" transform="matrix(-1,1.2246467991473532e-16,-1.2246467991473532e-16,-1,1392,672)"></polygon><circle r="4" fill="#adb3b3" opacity="1" cx="988" cy="200"></circle></g><g id="Sends data to"><polygon points="232,424 224,440 240,440 232,424" fill="#adb3b3" opacity="1" transform="matrix(-1.8369701987210297e-16,-1,1,-1.8369701987210297e-16,-135.99999999999994,664)"></polygon><circle r="4" fill="#adb3b3" opacity="1" cx="640" cy="432"></circle></g></g></svg>