<svg xmlns="http://www.w3.org/2000/svg" xmlns:xlink="http://www.w3.org/1999/xlink" version="1.1" width="1160" height="584"><g id="Logistic engine App Diagram"><g id="Logistic engine"><rect width="768" height="512" rx="8" ry="8" fill-opacity="0.02" fill="#000000" stroke-opacity="1" stroke-width="2" stroke="#cfd2d2" opacity="1" x="360" y="40"></rect><text font-family="IBM Plex Sans Medium, Arial, sans-serif" font-size="15" font-weight="500" fill="#0c0d0d" opacity="1" x="376" y="71.375"><tspan dy="0" x="376">Logistic engine</tspan></text><g opacity="1"><text font-family="IBM Plex Sans, Arial, sans-serif" font-size="14" text-anchor="middle" fill="#595f61" x="744" y="517.25"><tspan dy="0" x="744">Go/ Python</tspan></text></g><g id="System" opacity="1"><text font-family="Courier New, monospace" font-size="12" text-anchor="middle" fill="#595f61" x="744" y="540.6552734375"><tspan dy="0" x="744">System</tspan></text></g></g><g id="asynchronous event consumption"><polyline points="520,144 672,144" fill="none" stroke-width="1" stroke="#adb3b3" opacity="1"></polyline></g><g id="asynchronous event consumption"><rect width="140.66" height="38.2" x="525.6700000000001" y="124.89999999999998" rx="4" ry="4" fill-opacity="0.8" fill="#e5e7e8" stroke-opacity="1" stroke-width="1" stroke="#cfd2d2" opacity="0.8"></rect><g opacity="1" fill="#434647"><text font-family="IBM Plex Sans Medium, Arial, sans-serif" font-size="14" text-anchor="middle" x="596" y="141.24999999999997"><tspan dy="0" x="596">asynchronous event</tspan></text><text font-family="IBM Plex Sans Medium, Arial, sans-serif" font-size="14" text-anchor="middle" x="596" y="157.25"><tspan dy="0" x="596">consumption</tspan></text></g></g><g id="rule-based decision making"><polyline points="824,144 864.88,144.63 877.28,146.37 886.09,149 892.22,152.3 907.78,167.7 913.91,171 922.72,173.63 935.12,175.37 976,176" fill="none" stroke-width="1" stroke="#adb3b3" opacity="1"></polyline></g><g id="rule-based decision making"><rect width="138.616" height="38.2" x="830.692" y="140.89999999999998" rx="4" ry="4" fill-opacity="0.8" fill="#e5e7e8" stroke-opacity="1" stroke-width="1" stroke="#cfd2d2" opacity="0.8"></rect><g opacity="1" fill="#434647"><text font-family="IBM Plex Sans Medium, Arial, sans-serif" font-size="14" text-anchor="middle" x="900" y="157.25"><tspan dy="0" x="900">rule-based decision</tspan></text><text font-family="IBM Plex Sans Medium, Arial, sans-serif" font-size="14" text-anchor="middle" x="900" y="173.24999999999997"><tspan dy="0" x="900">making</tspan></text></g></g><g id="computational"><polyline points="1052,232 1051.5,262.97 1050.03,269.39 1047.63,275.29 1044.3400000000001,280.7 1040.19,285.62 1035.22,290.09 1029.47,294.12 1022.98,297.73 1007.93,303.8 999.44,306.3 980.74,310.33 959.98,313.21 937.47,315.11 888.42,316.66 769.52,315.36 718.49,315.8 694.53,316.89 672.02,318.79 641.63,323.53 624.0699999999999,328.2 609.02,334.27 596.78,341.91 591.81,346.38 587.6600000000001,351.3 584.37,356.71 581.97,362.61 580.5,369.03 580,400" fill="none" stroke-width="1" stroke="#adb3b3" opacity="1"></polyline></g><g id="computational"><rect width="105.03" height="22.2" x="763.4997557617404" y="304.7683530907508" rx="4" ry="4" fill-opacity="0.8" fill="#e5e7e8" stroke-opacity="1" stroke-width="1" stroke="#cfd2d2" opacity="0.8"></rect><g opacity="1" fill="#434647"><text font-family="IBM Plex Sans Medium, Arial, sans-serif" font-size="14" text-anchor="middle" x="816.0147557617404" y="321.1183530907508"><tspan dy="0" x="816.0147557617404">computational</tspan></text></g></g><g id="scheduling &amp; prioritization"><polyline points="656,456 696.8199999999999,455.88 734.6,454.34 758.72,451.49 793.28,444.51 817.4,441.66 855.18,440.12 896,440" fill="none" stroke-width="1" stroke="#adb3b3" opacity="1"></polyline></g><g id="scheduling &amp; prioritization"><rect width="94.88" height="38.2" x="728.56" y="428.9" rx="4" ry="4" fill-opacity="0.8" fill="#e5e7e8" stroke-opacity="1" stroke-width="1" stroke="#cfd2d2" opacity="0.8"></rect><g opacity="1" fill="#434647"><text font-family="IBM Plex Sans Medium, Arial, sans-serif" font-size="14" text-anchor="middle" x="776" y="445.25"><tspan dy="0" x="776">scheduling &amp;</tspan></text><text font-family="IBM Plex Sans Medium, Arial, sans-serif" font-size="14" text-anchor="middle" x="776" y="461.25"><tspan dy="0" x="776">prioritization</tspan></text></g></g><g id="Receive Shipment Event"><polyline points="192,88 216,88 231.85,88.71 244.34,90.72 253.98,93.82 261.28999999999996,97.82 266.78999999999996,102.52 270.99,107.71000000000001 281.01,124.28999999999999 285.21000000000004,129.48 290.71,134.18 298.02,138.18 307.65999999999997,141.28 320.15,143.29 336,144 360,144" fill="none" stroke-width="1" stroke="#adb3b3" opacity="1"></polyline></g><g id="Receive Shipment Event"><rect width="127.64" height="38.2" x="212.18" y="96.9" rx="4" ry="4" fill-opacity="0.8" fill="#e5e7e8" stroke-opacity="1" stroke-width="1" stroke="#cfd2d2" opacity="0.8"></rect><g opacity="1" fill="#434647"><text font-family="IBM Plex Sans Medium, Arial, sans-serif" font-size="14" text-anchor="middle" x="276" y="113.25"><tspan dy="0" x="276">Receive Shipment</tspan></text><text font-family="IBM Plex Sans Medium, Arial, sans-serif" font-size="14" text-anchor="middle" x="276" y="129.25"><tspan dy="0" x="276">Event</tspan></text></g></g><a href="https://app.icepanel.io/landscapes/pMzFyeYjGnWRGy8yUsah/versions/latest/model/objects?object=6CeVALttgx&amp;focus=6CeVALttgx" id="Route Optimizer" target="_blank"><rect width="152" height="112" rx="8" ry="8" fill-opacity="0.8" fill="#f5f6f6" stroke-opacity="1" stroke-width="1" stroke="#adb3b3" opacity="1" x="976" y="120"></rect><text font-family="IBM Plex Sans Medium, Arial, sans-serif" font-size="21" font-weight="500" text-anchor="middle" fill="#0c0d0d" opacity="1" x="1052" y="168.37500000000003"><tspan dy="0" x="1052">Route</tspan></text><text font-family="IBM Plex Sans Medium, Arial, sans-serif" font-size="21" font-weight="500" text-anchor="middle" fill="#0c0d0d" opacity="1" x="1052" y="191.37500000000003"><tspan dy="0" x="1052">Optimizer</tspan></text><g id="System" opacity="1"><text font-family="Courier New, monospace" font-size="12" text-anchor="middle" fill="#595f61" x="1052" y="220.6552734375"><tspan dy="0" x="1052">System</tspan></text></g></a><a href="https://app.icepanel.io/landscapes/pMzFyeYjGnWRGy8yUsah/versions/latest/model/objects?object=QqZVM7gyDg&amp;focus=QqZVM7gyDg" id="Hub Assignment Module" target="_blank"><rect width="152" height="112" rx="8" ry="8" fill-opacity="0.8" fill="#f5f6f6" stroke-opacity="1" stroke-width="1" stroke="#adb3b3" opacity="1" x="672" y="88"></rect><text font-family="IBM Plex Sans Medium, Arial, sans-serif" font-size="18" font-weight="500" text-anchor="middle" fill="#0c0d0d" opacity="1" x="748" y="136.75"><tspan dy="0" x="748">Hub Assignment</tspan></text><text font-family="IBM Plex Sans Medium, Arial, sans-serif" font-size="18" font-weight="500" text-anchor="middle" fill="#0c0d0d" opacity="1" x="748" y="156.75"><tspan dy="0" x="748">Module</tspan></text><g id="System" opacity="1"><text font-family="Courier New, monospace" font-size="12" text-anchor="middle" fill="#595f61" x="748" y="188.6552734375"><tspan dy="0" x="748">System</tspan></text></g></a><a href="https://app.icepanel.io/landscapes/pMzFyeYjGnWRGy8yUsah/versions/latest/model/objects?object=i30ss5VVrD&amp;focus=i30ss5VVrD" id="Delivery Scheduler" target="_blank"><rect width="152" height="112" rx="8" ry="8" fill-opacity="0.8" fill="#f5f6f6" stroke-opacity="1" stroke-width="1" stroke="#adb3b3" opacity="1" x="504" y="400"></rect><text font-family="IBM Plex Sans Medium, Arial, sans-serif" font-size="21" font-weight="500" text-anchor="middle" fill="#0c0d0d" opacity="1" x="580.0000000000001" y="448.375"><tspan dy="0" x="580.0000000000001">Delivery</tspan></text><text font-family="IBM Plex Sans Medium, Arial, sans-serif" font-size="21" font-weight="500" text-anchor="middle" fill="#0c0d0d" opacity="1" x="580" y="471.375"><tspan dy="0" x="580">Scheduler</tspan></text><g id="System" opacity="1"><text font-family="Courier New, monospace" font-size="12" text-anchor="middle" fill="#595f61" x="580" y="500.6552734375"><tspan dy="0" x="580">System</tspan></text></g></a><a href="https://app.icepanel.io/landscapes/pMzFyeYjGnWRGy8yUsah/versions/latest/model/objects?object=gzsAlKWyeA&amp;focus=gzsAlKWyeA" id="Event Listener" target="_blank"><rect width="160" height="112" rx="8" ry="8" fill-opacity="0.8" fill="#f5f6f6" stroke-opacity="1" stroke-width="1" stroke="#adb3b3" opacity="1" x="360" y="88"></rect><text font-family="IBM Plex Sans Medium, Arial, sans-serif" font-size="22" font-weight="500" text-anchor="middle" fill="#0c0d0d" opacity="1" x="440" y="148.25"><tspan dy="0" x="440">Event Listener</tspan></text><g id="System" opacity="1"><text font-family="Courier New, monospace" font-size="12" text-anchor="middle" fill="#595f61" x="440" y="188.6552734375"><tspan dy="0" x="440">System</tspan></text></g></a><a href="https://app.icepanel.io/landscapes/pMzFyeYjGnWRGy8yUsah/versions/latest/model/objects?object=YeWIoJFxfo&amp;focus=YeWIoJFxfo" id="Logistics Repository" target="_blank"><rect width="168" height="128" rx="8" ry="8" fill-opacity="0.8" fill="#f5f6f6" stroke-opacity="1" stroke-width="1" stroke="#adb3b3" opacity="1" x="896" y="376"></rect><text font-family="IBM Plex Sans Medium, Arial, sans-serif" font-size="24" font-weight="500" text-anchor="middle" fill="#0c0d0d" opacity="1" x="980" y="432"><tspan dy="0" x="980">Logistics</tspan></text><text font-family="IBM Plex Sans Medium, Arial, sans-serif" font-size="24" font-weight="500" text-anchor="middle" fill="#0c0d0d" opacity="1" x="980" y="458"><tspan dy="0" x="980">Repository</tspan></text><g id="System" opacity="1"><text font-family="Courier New, monospace" font-size="12" text-anchor="middle" fill="#595f61" x="980" y="492.6552734375"><tspan dy="0" x="980">System</tspan></text></g></a><a href="https://app.icepanel.io/landscapes/pMzFyeYjGnWRGy8yUsah/versions/latest/model/objects?object=OWtmbSi6f2&amp;focus=OWtmbSi6f2" id="Shipping Service-" target="_blank"><rect width="160" height="112" rx="8" ry="8" fill-opacity="0.8" fill="#f5f6f6" stroke-opacity="1" stroke-width="1" stroke="#adb3b3" opacity="1" x="32" y="32"></rect><text font-family="IBM Plex Sans Medium, Arial, sans-serif" font-size="21" font-weight="500" text-anchor="middle" fill="#0c0d0d" opacity="1" x="112" y="80.375"><tspan dy="0" x="112">Shipping</tspan></text><text font-family="IBM Plex Sans Medium, Arial, sans-serif" font-size="21" font-weight="500" text-anchor="middle" fill="#0c0d0d" opacity="1" x="112" y="103.375"><tspan dy="0" x="112">Service-</tspan></text><g id="System" opacity="1"><text font-family="Courier New, monospace" font-size="12" text-anchor="middle" fill="#595f61" x="112" y="132.6552734375"><tspan dy="0" x="112">System</tspan></text></g></a><g id="asynchronous event consumption"><polygon points="664,71.99999999999997 656,87.99999999999997 672,87.99999999999997 664,71.99999999999997" fill="#adb3b3" opacity="1" transform="matrix(6.123233995736766e-17,1,-1,6.123233995736766e-17,744,-520)"></polygon><circle r="4" fill="#adb3b3" opacity="1" cx="520" cy="144"></circle></g><g id="rule-based decision making"><polygon points="967.5040584013987,103.38743411787308 959.5040584013987,119.38743411787308 975.5040584013987,119.38743411787308 967.5040584013987,103.38743411787308" fill="#adb3b3" opacity="1" transform="matrix(-0.015409129196720849,0.9998812723205684,-0.9998812723205684,-0.015409129196720849,1094.2835542019966,-789.7960785600642)"></polygon><circle r="4" fill="#adb3b3" opacity="1" cx="824" cy="144"></circle></g><g id="computational"><polygon points="515.6167483241744,320.5217736588775 507.6167483241744,336.5217736588775 523.6167483241744,336.5217736588775 515.6167483241744,320.5217736588775" fill="#adb3b3" opacity="1" transform="matrix(-0.999869700510763,-0.01614255247837836,0.01614255247837836,-0.999869700510763,1090.3755241734746,728.8033802540342)"></polygon><circle r="4" fill="#adb3b3" opacity="1" cx="1052" cy="232"></circle></g><g id="scheduling &amp; prioritization"><polygon points="888.0939674232193,368.1177271806628 880.0939674232193,384.1177271806628 896.0939674232193,384.1177271806628 888.0939674232193,368.1177271806628" fill="#adb3b3" opacity="1" transform="matrix(0.002939722721232382,0.9999956790058256,-0.9999956790058256,0.002939722721232382,1261.5053865314849,-449.1722940210412)"></polygon><circle r="4" fill="#adb3b3" opacity="1" cx="656" cy="456"></circle></g><g id="Receive Shipment Event"><polygon points="352,71.99999999999999 344,87.99999999999999 360,87.99999999999999 352,71.99999999999999" fill="#adb3b3" opacity="1" transform="matrix(6.123233995736766e-17,1,-1,6.123233995736766e-17,432,-208)"></polygon><circle r="4" fill="#adb3b3" opacity="1" cx="192" cy="88"></circle></g></g></svg>