<svg xmlns="http://www.w3.org/2000/svg" xmlns:xlink="http://www.w3.org/1999/xlink" version="1.1" width="1040" height="632"><g id="Office Service App Diagram"><g id="Office Service"><rect width="768" height="512" rx="8" ry="8" fill-opacity="0.02" fill="#000000" stroke-opacity="1" stroke-width="2" stroke="#cfd2d2" opacity="1" x="240" y="88"></rect><text font-family="IBM Plex Sans Medium, Arial, sans-serif" font-size="15" font-weight="500" fill="#0c0d0d" opacity="1" x="256" y="119.375"><tspan dy="0" x="256">Office Service</tspan></text><g id="System" opacity="1"><text font-family="Courier New, monospace" font-size="12" text-anchor="middle" fill="#595f61" x="624" y="588.6552734375"><tspan dy="0" x="624">System</tspan></text></g></g><g id="access"><polyline points="160,132 184,132 198.98000000000002,132.99 210.20999999999998,135.76999999999998 218.32,140.03 223.92000000000002,145.48000000000002 227.66,151.82999999999998 230.14,158.76 233.86,173.24 236.34,180.17 240.08,186.52 245.68,191.97 253.79,196.23 265.02,199.01 280,200 304,200" fill="none" stroke-width="1" stroke="#adb3b3" opacity="1"></polyline></g><g id="access"><rect width="55.54" height="22.2" x="204.23" y="154.89999999999998" rx="4" ry="4" fill-opacity="0.8" fill="#e5e7e8" stroke-opacity="1" stroke-width="1" stroke="#cfd2d2" opacity="0.8"></rect><g opacity="1" fill="#434647"><text font-family="IBM Plex Sans Medium, Arial, sans-serif" font-size="14" text-anchor="middle" x="232" y="171.25"><tspan dy="0" x="232">access</tspan></text></g></g><g id="view"><polyline points="464,200 488,200 500.38,201.26 509.21,204.81 515,210.34 518.24,217.5 519.46,225.98 519.15,235.44 512.85,276.56 512.54,286.02 513.76,294.5 517,301.66 522.79,307.19 531.62,310.74 544,312 568,312" fill="none" stroke-width="1" stroke="#adb3b3" opacity="1"></polyline></g><g id="view"><rect width="41.833999999999996" height="22.2" x="495.083" y="244.9" rx="4" ry="4" fill-opacity="0.8" fill="#e5e7e8" stroke-opacity="1" stroke-width="1" stroke="#cfd2d2" opacity="0.8"></rect><g opacity="1" fill="#434647"><text font-family="IBM Plex Sans Medium, Arial, sans-serif" font-size="14" text-anchor="middle" x="516" y="261.25"><tspan dy="0" x="516">view</tspan></text></g></g><g id="report"><polyline points="736,312 760,312 771.89,312.93 781.28,315.62 788.41,319.91 793.5,325.63 796.78,332.63 798.47,340.75 798.8,349.83 798,359.7 793.91,381.21 779.7,437.78 778,448.3 777.2,458.17 777.53,467.25 779.22,475.37 782.5,482.37 787.59,488.09 794.72,492.38 804.11,495.07 816,496 840,496" fill="none" stroke-width="1" stroke="#adb3b3" opacity="1"></polyline></g><g id="report"><rect width="51.76" height="22.2" x="762.2940390206401" y="392.94485662226543" rx="4" ry="4" fill-opacity="0.8" fill="#e5e7e8" stroke-opacity="1" stroke-width="1" stroke="#cfd2d2" opacity="0.8"></rect><g opacity="1" fill="#434647"><text font-family="IBM Plex Sans Medium, Arial, sans-serif" font-size="14" text-anchor="middle" x="788.1740390206401" y="409.29485662226546"><tspan dy="0" x="788.1740390206401">report</tspan></text></g></g><a href="https://app.icepanel.io/landscapes/pMzFyeYjGnWRGy8yUsah/versions/latest/model/objects?object=ZiQzHueYQq&amp;focus=ZiQzHueYQq" id="Staff-" target="_blank"><rect width="56" height="56" rx="8" ry="8" fill-opacity="0.8" fill="#f5f6f6" stroke-opacity="1" stroke-width="1" stroke="#adb3b3" opacity="1" x="68" y="32"></rect><rect width="128" height="64" rx="8" ry="8" fill-opacity="0.8" fill="#f5f6f6" stroke-opacity="1" stroke-width="1" stroke="#adb3b3" opacity="1" x="32" y="96"></rect><path d="M96 61.714285714285715C99.7875 61.714285714285715 102.85714285714286 58.644642857142856 102.85714285714286 54.85714285714286C102.85714285714286 51.06964285714285 99.7875 48 96 48C92.2125 48 89.14285714285714 51.06964285714285 89.14285714285714 54.85714285714286C89.14285714285714 58.644642857142856 92.2125 61.714285714285715 96 61.714285714285715ZM100.8 63.42857142857143L99.90535714285714 63.42857142857143C98.71607142857142 63.974999999999994 97.39285714285714 64.28571428571428 96 64.28571428571428C94.60714285714286 64.28571428571428 93.28928571428571 63.974999999999994 92.09464285714286 63.42857142857143L91.2 63.42857142857143C87.225 63.42857142857143 84 66.65357142857142 84 70.62857142857143L84 72.85714285714286C84 74.27678571428571 85.15178571428572 75.42857142857143 86.57142857142857 75.42857142857143L105.42857142857143 75.42857142857143C106.84821428571428 75.42857142857143 108 74.27678571428571 108 72.85714285714286L108 70.62857142857143C108 66.65357142857142 104.775 63.42857142857143 100.8 63.42857142857143Z " fill="#0c0d0d" opacity="1"></path><text font-family="IBM Plex Sans Medium, Arial, sans-serif" font-size="20" font-weight="500" text-anchor="middle" fill="#0c0d0d" opacity="1" x="96" y="126.5"><tspan dy="0" x="96">Staff-</tspan></text><g id="Actor" opacity="1"><text font-family="Courier New, monospace" font-size="12" text-anchor="middle" fill="#595f61" x="96" y="148.6552734375"><tspan dy="0" x="96">Actor</tspan></text></g></a><a href="https://app.icepanel.io/landscapes/pMzFyeYjGnWRGy8yUsah/versions/latest/model/objects?object=jkRCcTRX2J&amp;focus=jkRCcTRX2J" id="-Login-" target="_blank"><rect width="160" height="112" rx="8" ry="8" fill-opacity="0.8" fill="#f5f6f6" stroke-opacity="1" stroke-width="1" stroke="#adb3b3" opacity="1" x="304" y="144"></rect><text font-family="IBM Plex Sans Medium, Arial, sans-serif" font-size="24" font-weight="500" text-anchor="middle" fill="#0c0d0d" opacity="1" x="384" y="204.99999999999997"><tspan dy="0" x="384">-Login-</tspan></text><g id="System" opacity="1"><text font-family="Courier New, monospace" font-size="12" text-anchor="middle" fill="#595f61" x="384" y="244.6552734375"><tspan dy="0" x="384">System</tspan></text></g></a><a href="https://app.icepanel.io/landscapes/pMzFyeYjGnWRGy8yUsah/versions/latest/model/objects?object=6Z814SfNHv&amp;focus=6Z814SfNHv" id="Show history profit-" target="_blank"><rect width="168" height="112" rx="8" ry="8" fill-opacity="0.8" fill="#f5f6f6" stroke-opacity="1" stroke-width="1" stroke="#adb3b3" opacity="1" x="568" y="256"></rect><text font-family="IBM Plex Sans Medium, Arial, sans-serif" font-size="21" font-weight="500" text-anchor="middle" fill="#0c0d0d" opacity="1" x="652" y="304.375"><tspan dy="0" x="652">Show history</tspan></text><text font-family="IBM Plex Sans Medium, Arial, sans-serif" font-size="21" font-weight="500" text-anchor="middle" fill="#0c0d0d" opacity="1" x="652" y="327.375"><tspan dy="0" x="652">profit-</tspan></text><g id="System" opacity="1"><text font-family="Courier New, monospace" font-size="12" text-anchor="middle" fill="#595f61" x="652" y="356.6552734375"><tspan dy="0" x="652">System</tspan></text></g></a><a href="https://app.icepanel.io/landscapes/pMzFyeYjGnWRGy8yUsah/versions/latest/model/objects?object=M45CmGEtIq&amp;focus=M45CmGEtIq" id="Format report PDF-" target="_blank"><rect width="168" height="112" rx="8" ry="8" fill-opacity="0.8" fill="#f5f6f6" stroke-opacity="1" stroke-width="1" stroke="#adb3b3" opacity="1" x="840" y="440"></rect><text font-family="IBM Plex Sans Medium, Arial, sans-serif" font-size="21" font-weight="500" text-anchor="middle" fill="#0c0d0d" opacity="1" x="924" y="488.375"><tspan dy="0" x="924">Format report</tspan></text><text font-family="IBM Plex Sans Medium, Arial, sans-serif" font-size="21" font-weight="500" text-anchor="middle" fill="#0c0d0d" opacity="1" x="924" y="511.375"><tspan dy="0" x="924">PDF-</tspan></text><g id="System" opacity="1"><text font-family="Courier New, monospace" font-size="12" text-anchor="middle" fill="#595f61" x="924" y="540.6552734375"><tspan dy="0" x="924">System</tspan></text></g></a><g id="access"><polygon points="296,128 288,144 304,144 296,128" fill="#adb3b3" opacity="1" transform="matrix(6.123233995736766e-17,1,-1,6.123233995736766e-17,432,-96)"></polygon><circle r="4" fill="#adb3b3" opacity="1" cx="160" cy="132"></circle></g><g id="view"><polygon points="560,240 552,256 568,256 560,240" fill="#adb3b3" opacity="1" transform="matrix(6.123233995736766e-17,1,-1,6.123233995736766e-17,808,-248)"></polygon><circle r="4" fill="#adb3b3" opacity="1" cx="464" cy="200"></circle></g><g id="report"><polygon points="832,424 824,440 840,440 832,424" fill="#adb3b3" opacity="1" transform="matrix(6.123233995736766e-17,1,-1,6.123233995736766e-17,1264,-336)"></polygon><circle r="4" fill="#adb3b3" opacity="1" cx="736" cy="312"></circle></g></g></svg>