<svg xmlns="http://www.w3.org/2000/svg" xmlns:xlink="http://www.w3.org/1999/xlink" version="1.1" width="2120" height="672"><g id="Payment Services App Diagram"><g id="Payment services"><rect width="352" height="248" rx="8" ry="8" fill-opacity="0.02" fill="#000000" stroke-opacity="1" stroke-width="2" stroke="#cfd2d2" opacity="1" x="624" y="32"></rect><text font-family="IBM Plex Sans Medium, Arial, sans-serif" font-size="15" font-weight="500" fill="#0c0d0d" opacity="1" x="640" y="63.375"><tspan dy="0" x="640">Payment services</tspan></text><g id="System" opacity="1"><text font-family="Courier New, monospace" font-size="12" text-anchor="middle" fill="#595f61" x="800" y="268.6552734375"><tspan dy="0" x="800">System</tspan></text></g></g><g id="Sends data to"><polyline points="152,360 207.7,359.55999999999995 227.12,358.4100000000001 254.23,354.3299999999999 269.36,352.94000000000005 294.31,352.1199999999999 336,352" fill="none" stroke-width="1" stroke="#adb3b3" opacity="1"></polyline></g><g id="Sends data to"><rect width="99.836" height="22.2" x="194.0655420602551" y="344.772071132208" rx="4" ry="4" fill-opacity="0.8" fill="#e5e7e8" stroke-opacity="1" stroke-width="1" stroke="#cfd2d2" opacity="0.8"></rect><g opacity="1" fill="#434647"><text font-family="IBM Plex Sans Medium, Arial, sans-serif" font-size="14" text-anchor="middle" x="243.9835420602551" y="361.122071132208"><tspan dy="0" x="243.9835420602551">Sends data to</tspan></text></g></g><g id="Sends data to"><polyline points="456,324 480,324 493.8,323.28999999999996 505.77,321.24 516.05,317.95000000000005 524.8,313.54999999999995 532.1800000000001,308.1400000000001 538.3299999999999,301.8299999999999 543.4200000000001,294.74 547.58,286.97 550.98,278.6500000000001 556.1,260.77 563.9,223.23000000000002 569.02,205.3499999999999 572.42,197.02999999999997 576.58,189.26 581.67,182.17000000000007 587.8199999999999,175.8599999999999 595.2,170.45000000000005 603.95,166.04999999999995 614.23,162.76 626.2,160.71000000000004 640,160 664,160" fill="none" stroke-width="1" stroke="#adb3b3" opacity="1"></polyline></g><g id="Sends data to"><rect width="99.836" height="22.2" x="510.082" y="230.9" rx="4" ry="4" fill-opacity="0.8" fill="#e5e7e8" stroke-opacity="1" stroke-width="1" stroke="#cfd2d2" opacity="0.8"></rect><g opacity="1" fill="#434647"><text font-family="IBM Plex Sans Medium, Arial, sans-serif" font-size="14" text-anchor="middle" x="559.9999999999999" y="247.24999999999997"><tspan dy="0" x="559.9999999999999">Sends data to</tspan></text></g></g><g id="Sends data to"><polyline points="456,352 497.42,352.20000000000005 522.72,353.6600000000001 538.74,356.1500000000001 565.26,363.8499999999999 581.28,366.3399999999999 606.58,367.79999999999995 648,368" fill="none" stroke-width="1" stroke="#adb3b3" opacity="1"></polyline></g><g id="Sends data to"><rect width="99.836" height="22.2" x="502.082" y="348.9" rx="4" ry="4" fill-opacity="0.8" fill="#e5e7e8" stroke-opacity="1" stroke-width="1" stroke="#cfd2d2" opacity="0.8"></rect><g opacity="1" fill="#434647"><text font-family="IBM Plex Sans Medium, Arial, sans-serif" font-size="14" text-anchor="middle" x="551.9999999999999" y="365.25"><tspan dy="0" x="551.9999999999999">Sends data to</tspan></text></g></g><g id="Sends data to"><polyline points="456,380 480,380 492.82,380.73 503.93,382.8599999999999 513.47,386.27 521.56,390.8599999999999 528.35,396.52 533.95,403.1400000000001 538.5,410.6300000000001 542.13,418.8599999999999 544.98,427.73 548.84,446.98 553.89,498.8599999999999 556.83,518.8599999999999 561.87,537.1400000000001 565.5,545.3800000000001 570.05,552.8599999999999 575.65,559.48 582.44,565.1400000000001 590.53,569.73 600.0699999999999,573.1400000000001 611.1800000000001,575.27 624,576 648,576" fill="none" stroke-width="1" stroke="#adb3b3" opacity="1"></polyline></g><g id="Sends data to"><rect width="99.836" height="22.2" x="501.9424454245202" y="466.90984329190246" rx="4" ry="4" fill-opacity="0.8" fill="#e5e7e8" stroke-opacity="1" stroke-width="1" stroke="#cfd2d2" opacity="0.8"></rect><g opacity="1" fill="#434647"><text font-family="IBM Plex Sans Medium, Arial, sans-serif" font-size="14" text-anchor="middle" x="551.8604454245203" y="483.2598432919025"><tspan dy="0" x="551.8604454245203">Sends data to</tspan></text></g></g><g id="Sends data to"><polyline points="920,160 944,160 959.8299999999999,160.72000000000003 972.73,162.76 983.0799999999999,165.94000000000005 991.28,170.07999999999993 997.71,175.01999999999998 1002.77,180.57999999999993 1006.86,186.56999999999994 1017.14,205.43000000000006 1021.23,211.42000000000007 1026.29,216.98000000000002 1032.72,221.92000000000007 1040.92,226.05999999999995 1051.27,229.24 1064.17,231.27999999999997 1080,232 1104,232" fill="none" stroke-width="1" stroke="#adb3b3" opacity="1"></polyline></g><g id="Sends data to"><rect width="99.836" height="22.2" x="962.082" y="184.9" rx="4" ry="4" fill-opacity="0.8" fill="#e5e7e8" stroke-opacity="1" stroke-width="1" stroke="#cfd2d2" opacity="0.8"></rect><g opacity="1" fill="#434647"><text font-family="IBM Plex Sans Medium, Arial, sans-serif" font-size="14" text-anchor="middle" x="1012" y="201.24999999999997"><tspan dy="0" x="1012">Sends data to</tspan></text></g></g><g id="Sends data to"><polyline points="904,368 928,368 942.88,367.30999999999995 955.46,365.3499999999999 965.99,362.24 974.72,358.1199999999999 981.88,353.1199999999999 987.71,347.3800000000001 992.45,341.03999999999996 999.65,327.06999999999994 1011.64,297.78 1015.55,290.96000000000004 1020.29,284.6199999999999 1026.12,278.8800000000001 1033.28,273.8800000000001 1042.01,269.76 1052.54,266.6500000000001 1065.12,264.69000000000005 1080,264 1104,264" fill="none" stroke-width="1" stroke="#adb3b3" opacity="1"></polyline></g><g id="Sends data to"><rect width="99.836" height="22.2" x="954.2391108068556" y="304.9597184709924" rx="4" ry="4" fill-opacity="0.8" fill="#e5e7e8" stroke-opacity="1" stroke-width="1" stroke="#cfd2d2" opacity="0.8"></rect><g opacity="1" fill="#434647"><text font-family="IBM Plex Sans Medium, Arial, sans-serif" font-size="14" text-anchor="middle" x="1004.1571108068556" y="321.30971847099244"><tspan dy="0" x="1004.1571108068556">Sends data to</tspan></text></g></g><g id="Sends data to"><polyline points="1360,232 1384,232 1397.15,232.77999999999997 1408.21,235.04999999999995 1417.37,238.68000000000006 1424.8,243.52999999999997 1430.69,249.47000000000003 1435.22,256.3900000000001 1438.5700000000002,264.1400000000001 1440.92,272.5999999999999 1443.35,291.1400000000001 1444.21,331.04999999999995 1445.55,350.3599999999999 1447.08,359.4000000000001 1449.4299999999998,367.8599999999999 1452.78,375.6099999999999 1457.31,382.53 1463.2,388.47 1470.63,393.31999999999994 1479.79,396.95000000000005 1490.85,399.22 1504,400 1528,400" fill="none" stroke-width="1" stroke="#adb3b3" opacity="1"></polyline></g><g id="Sends data to"><rect width="99.836" height="22.2" x="1393.9678477544453" y="304.90707427895927" rx="4" ry="4" fill-opacity="0.8" fill="#e5e7e8" stroke-opacity="1" stroke-width="1" stroke="#cfd2d2" opacity="0.8"></rect><g opacity="1" fill="#434647"><text font-family="IBM Plex Sans Medium, Arial, sans-serif" font-size="14" text-anchor="middle" x="1443.8858477544452" y="321.2570742789593"><tspan dy="0" x="1443.8858477544452">Sends data to</tspan></text></g></g><g id="Sends data to"><polyline points="904,576 1144,576" fill="none" stroke-width="1" stroke="#adb3b3" opacity="1"></polyline></g><g id="Sends data to"><rect width="99.836" height="22.2" x="974.082" y="564.9" rx="4" ry="4" fill-opacity="0.8" fill="#e5e7e8" stroke-opacity="1" stroke-width="1" stroke="#cfd2d2" opacity="0.8"></rect><g opacity="1" fill="#434647"><text font-family="IBM Plex Sans Medium, Arial, sans-serif" font-size="14" text-anchor="middle" x="1024" y="581.2500000000001"><tspan dy="0" x="1024">Sends data to</tspan></text></g></g><g id="Sends data to"><polyline points="1712,400 1780.34,399.3399999999999 1805.79,397.71000000000004 1834.21,394.28999999999996 1849.59,393.1199999999999 1886.49,392.0799999999999 1928,392" fill="none" stroke-width="1" stroke="#adb3b3" opacity="1"></polyline></g><g id="Sends data to"><rect width="99.836" height="22.2" x="1770.083904494303" y="384.89977081736396" rx="4" ry="4" fill-opacity="0.8" fill="#e5e7e8" stroke-opacity="1" stroke-width="1" stroke="#cfd2d2" opacity="0.8"></rect><g opacity="1" fill="#434647"><text font-family="IBM Plex Sans Medium, Arial, sans-serif" font-size="14" text-anchor="middle" x="1820.0019044943028" y="401.249770817364"><tspan dy="0" x="1820.0019044943028">Sends data to</tspan></text></g></g><g id="Sends data to"><polyline points="1400,576 1431.8600000000001,575.8199999999999 1448.13,574.44 1473.8,570.03 1500.81,563.1400000000001 1538.53,550.76 1577.78,535.56 1618.06,518.4300000000001 1740.23,464.5799999999999 1779.78,448.80999999999995 1808.55,438.6400000000001 1845.33,428.01 1871.47,422.73 1896.14,420.18000000000006 1928,420" fill="none" stroke-width="1" stroke="#adb3b3" opacity="1"></polyline></g><g id="Sends data to"><rect width="99.836" height="22.2" x="1614.145456563002" y="487.0526312849501" rx="4" ry="4" fill-opacity="0.8" fill="#e5e7e8" stroke-opacity="1" stroke-width="1" stroke="#cfd2d2" opacity="0.8"></rect><g opacity="1" fill="#434647"><text font-family="IBM Plex Sans Medium, Arial, sans-serif" font-size="14" text-anchor="middle" x="1664.0634565630019" y="503.40263128495013"><tspan dy="0" x="1664.0634565630019">Sends data to</tspan></text></g></g><a href="https://app.icepanel.io/landscapes/pMzFyeYjGnWRGy8yUsah/versions/latest/model/objects?object=462fhT00zx&amp;focus=462fhT00zx" id="Payment controller" target="_blank"><rect width="120" height="112" rx="8" ry="8" fill-opacity="0.8" fill="#f5f6f6" stroke-opacity="1" stroke-width="1" stroke="#adb3b3" opacity="1" x="32" y="304"></rect><text font-family="IBM Plex Sans Medium, Arial, sans-serif" font-size="21" font-weight="500" text-anchor="middle" fill="#0c0d0d" opacity="1" x="92" y="352.375"><tspan dy="0" x="92">Payment</tspan></text><text font-family="IBM Plex Sans Medium, Arial, sans-serif" font-size="21" font-weight="500" text-anchor="middle" fill="#0c0d0d" opacity="1" x="92" y="375.375"><tspan dy="0" x="92">controller</tspan></text><g id="System" opacity="1"><text font-family="Courier New, monospace" font-size="12" text-anchor="middle" fill="#595f61" x="92" y="404.6552734375"><tspan dy="0" x="92">System</tspan></text></g></a><a href="https://app.icepanel.io/landscapes/pMzFyeYjGnWRGy8yUsah/versions/latest/model/objects?object=4ILcPakkF2&amp;focus=4ILcPakkF2" id="Payment stretegy" target="_blank"><rect width="120" height="112" rx="8" ry="8" fill-opacity="0.8" fill="#f5f6f6" stroke-opacity="1" stroke-width="1" stroke="#adb3b3" opacity="1" x="336" y="296"></rect><text font-family="IBM Plex Sans Medium, Arial, sans-serif" font-size="21" font-weight="500" text-anchor="middle" fill="#0c0d0d" opacity="1" x="396" y="344.375"><tspan dy="0" x="396">Payment</tspan></text><text font-family="IBM Plex Sans Medium, Arial, sans-serif" font-size="21" font-weight="500" text-anchor="middle" fill="#0c0d0d" opacity="1" x="396.00000000000006" y="367.375"><tspan dy="0" x="396.00000000000006">stretegy</tspan></text><g id="System" opacity="1"><text font-family="Courier New, monospace" font-size="12" text-anchor="middle" fill="#595f61" x="396" y="396.6552734375"><tspan dy="0" x="396">System</tspan></text></g></a><a href="https://app.icepanel.io/landscapes/pMzFyeYjGnWRGy8yUsah/versions/latest/model/objects?object=eA093kjVj6&amp;focus=eA093kjVj6" id="Card Processor" target="_blank"><rect width="256" height="128" rx="8" ry="8" fill-opacity="0.8" fill="#f5f6f6" stroke-opacity="1" stroke-width="1" stroke="#adb3b3" opacity="1" x="664" y="96"></rect><text font-family="IBM Plex Sans Medium, Arial, sans-serif" font-size="24" font-weight="500" text-anchor="middle" fill="#0c0d0d" opacity="1" x="792" y="164.99999999999997"><tspan dy="0" x="792">Card Processor</tspan></text><g id="System" opacity="1"><text font-family="Courier New, monospace" font-size="12" text-anchor="middle" fill="#595f61" x="792" y="212.6552734375"><tspan dy="0" x="792">System</tspan></text></g></a><a href="https://app.icepanel.io/landscapes/pMzFyeYjGnWRGy8yUsah/versions/latest/model/objects?object=AolSYdieAo&amp;focus=AolSYdieAo" id="QR Processor" target="_blank"><rect width="256" height="128" rx="8" ry="8" fill-opacity="0.8" fill="#f5f6f6" stroke-opacity="1" stroke-width="1" stroke="#adb3b3" opacity="1" x="648" y="304"></rect><text font-family="IBM Plex Sans Medium, Arial, sans-serif" font-size="24" font-weight="500" text-anchor="middle" fill="#0c0d0d" opacity="1" x="775.9999999999999" y="373"><tspan dy="0" x="775.9999999999999">QR Processor</tspan></text><g id="System" opacity="1"><text font-family="Courier New, monospace" font-size="12" text-anchor="middle" fill="#595f61" x="776" y="420.6552734375"><tspan dy="0" x="776">System</tspan></text></g></a><a href="https://app.icepanel.io/landscapes/pMzFyeYjGnWRGy8yUsah/versions/latest/model/objects?object=lgN6L2amHv&amp;focus=lgN6L2amHv" id="Wallet Processor" target="_blank"><rect width="256" height="128" rx="8" ry="8" fill-opacity="0.8" fill="#f5f6f6" stroke-opacity="1" stroke-width="1" stroke="#adb3b3" opacity="1" x="648" y="512"></rect><text font-family="IBM Plex Sans Medium, Arial, sans-serif" font-size="24" font-weight="500" text-anchor="middle" fill="#0c0d0d" opacity="1" x="776" y="581.0000000000001"><tspan dy="0" x="776">Wallet Processor</tspan></text><g id="System" opacity="1"><text font-family="Courier New, monospace" font-size="12" text-anchor="middle" fill="#595f61" x="776" y="628.6552734375"><tspan dy="0" x="776">System</tspan></text></g></a><a href="https://app.icepanel.io/landscapes/pMzFyeYjGnWRGy8yUsah/versions/latest/model/objects?object=srODLPZaLC&amp;focus=srODLPZaLC" id="Bank API Client" target="_blank"><rect width="256" height="128" rx="8" ry="8" fill-opacity="0.8" fill="#f5f6f6" stroke-opacity="1" stroke-width="1" stroke="#adb3b3" opacity="1" x="1104" y="168"></rect><text font-family="IBM Plex Sans Medium, Arial, sans-serif" font-size="24" font-weight="500" text-anchor="middle" fill="#0c0d0d" opacity="1" x="1232.0000000000002" y="236.99999999999997"><tspan dy="0" x="1232.0000000000002">Bank API Client</tspan></text><g id="System" opacity="1"><text font-family="Courier New, monospace" font-size="12" text-anchor="middle" fill="#595f61" x="1232" y="284.6552734375"><tspan dy="0" x="1232">System</tspan></text></g></a><a href="https://app.icepanel.io/landscapes/pMzFyeYjGnWRGy8yUsah/versions/latest/model/objects?object=51ivQVpXIa&amp;focus=51ivQVpXIa" id="Wallet API Client" target="_blank"><rect width="256" height="128" rx="8" ry="8" fill-opacity="0.8" fill="#f5f6f6" stroke-opacity="1" stroke-width="1" stroke="#adb3b3" opacity="1" x="1144" y="512"></rect><text font-family="IBM Plex Sans Medium, Arial, sans-serif" font-size="24" font-weight="500" text-anchor="middle" fill="#0c0d0d" opacity="1" x="1272" y="581.0000000000001"><tspan dy="0" x="1272">Wallet API Client</tspan></text><g id="System" opacity="1"><text font-family="Courier New, monospace" font-size="12" text-anchor="middle" fill="#595f61" x="1272" y="628.6552734375"><tspan dy="0" x="1272">System</tspan></text></g></a><a href="https://app.icepanel.io/landscapes/pMzFyeYjGnWRGy8yUsah/versions/latest/model/objects?object=NiO4ubumq8&amp;focus=NiO4ubumq8" id="Webhook" target="_blank"><rect width="184" height="112" rx="8" ry="8" fill-opacity="0.8" fill="#f5f6f6" stroke-opacity="1" stroke-width="1" stroke="#adb3b3" opacity="1" x="1528" y="344"></rect><text font-family="IBM Plex Sans Medium, Arial, sans-serif" font-size="24" font-weight="500" text-anchor="middle" fill="#0c0d0d" opacity="1" x="1620" y="405"><tspan dy="0" x="1620">Webhook</tspan></text><g id="System" opacity="1"><text font-family="Courier New, monospace" font-size="12" text-anchor="middle" fill="#595f61" x="1620" y="444.6552734375"><tspan dy="0" x="1620">System</tspan></text></g></a><a href="https://app.icepanel.io/landscapes/pMzFyeYjGnWRGy8yUsah/versions/latest/model/objects?object=N35sfl1i3w&amp;focus=N35sfl1i3w" id="Payment-" target="_blank"><rect width="160" height="112" rx="8" ry="8" fill-opacity="0.8" fill="#f5f6f6" stroke-opacity="1" stroke-width="1" stroke="#adb3b3" opacity="1" x="1928" y="336"></rect><text font-family="IBM Plex Sans Medium, Arial, sans-serif" font-size="24" font-weight="500" text-anchor="middle" fill="#0c0d0d" opacity="1" x="2008" y="397"><tspan dy="0" x="2008">Payment-</tspan></text><g id="System" opacity="1"><text font-family="Courier New, monospace" font-size="12" text-anchor="middle" fill="#595f61" x="2008" y="436.6552734375"><tspan dy="0" x="2008">System</tspan></text></g></a><g id="Sends data to"><polygon points="328.09200861692386,280.115267608219 320.09200861692386,296.115267608219 336.09200861692386,296.115267608219 328.09200861692386,280.115267608219" fill="#adb3b3" opacity="1" transform="matrix(0.002878376178841978,0.9999958574667063,-0.9999958574667063,0.002878376178841978,615.1697349993256,23.103073401531788)"></polygon><circle r="4" fill="#adb3b3" opacity="1" cx="152" cy="360"></circle></g><g id="Sends data to"><polygon points="656,87.99999999999997 648,103.99999999999997 664,103.99999999999997 656,87.99999999999997" fill="#adb3b3" opacity="1" transform="matrix(6.123233995736766e-17,1,-1,6.123233995736766e-17,752,-496)"></polygon><circle r="4" fill="#adb3b3" opacity="1" cx="456" cy="324"></circle></g><g id="Sends data to"><polygon points="639.8452072961263,295.80723187981266 631.8452072961263,311.80723187981266 647.8452072961263,311.80723187981266 639.8452072961263,295.80723187981266" fill="#adb3b3" opacity="1" transform="matrix(-0.004828528935713995,0.9999883425862108,-0.9999883425862108,-0.004828528935713995,946.8932946303162,-270.40943457725865)"></polygon><circle r="4" fill="#adb3b3" opacity="1" cx="456" cy="352"></circle></g><g id="Sends data to"><polygon points="640,504 632,520 648,520 640,504" fill="#adb3b3" opacity="1" transform="matrix(6.123233995736766e-17,1,-1,6.123233995736766e-17,1152,-64)"></polygon><circle r="4" fill="#adb3b3" opacity="1" cx="456" cy="380"></circle></g><g id="Sends data to"><polygon points="1096,159.99999999999994 1088,175.99999999999994 1104,175.99999999999994 1096,159.99999999999994" fill="#adb3b3" opacity="1" transform="matrix(6.123233995736766e-17,1,-1,6.123233995736766e-17,1264,-864)"></polygon><circle r="4" fill="#adb3b3" opacity="1" cx="920" cy="160"></circle></g><g id="Sends data to"><polygon points="1096,191.99999999999994 1088,207.99999999999994 1104,207.99999999999994 1096,191.99999999999994" fill="#adb3b3" opacity="1" transform="matrix(6.123233995736766e-17,1,-1,6.123233995736766e-17,1296,-832)"></polygon><circle r="4" fill="#adb3b3" opacity="1" cx="904" cy="368"></circle></g><g id="Sends data to"><polygon points="1520.0000000000002,327.99999999999994 1512.0000000000002,343.99999999999994 1528.0000000000002,343.99999999999994 1520.0000000000002,327.99999999999994" fill="#adb3b3" opacity="1" transform="matrix(6.123233995736766e-17,1,-1,6.123233995736766e-17,1856,-1120)"></polygon><circle r="4" fill="#adb3b3" opacity="1" cx="1360" cy="232"></circle></g><g id="Sends data to"><polygon points="1136,503.99999999999994 1128,520 1144,520 1136,503.99999999999994" fill="#adb3b3" opacity="1" transform="matrix(6.123233995736766e-17,1,-1,6.123233995736766e-17,1648,-560)"></polygon><circle r="4" fill="#adb3b3" opacity="1" cx="904" cy="576"></circle></g><g id="Sends data to"><polygon points="1920.061627200537,320.07714914299527 1912.061627200537,336.07714914299527 1928.061627200537,336.07714914299527 1920.061627200537,320.07714914299527" fill="#adb3b3" opacity="1" transform="matrix(0.0019272428674818303,0.9999981428657404,-0.9999981428657404,0.0019272428674818303,2244.3761296406083,-1528.6749277910387)"></polygon><circle r="4" fill="#adb3b3" opacity="1" cx="1712" cy="400"></circle></g><g id="Sends data to"><polygon points="1920.1804050526334,348.22649579065177 1912.1804050526334,364.22649579065177 1928.1804050526334,364.22649579065177 1920.1804050526334,348.22649579065177" fill="#adb3b3" opacity="1" transform="matrix(0.00564962734874849,0.9999840407280609,-0.9999840407280609,0.00564962734874849,2265.372634618393,-1502.117110305555)"></polygon><circle r="4" fill="#adb3b3" opacity="1" cx="1400" cy="576"></circle></g></g></svg>