<svg xmlns="http://www.w3.org/2000/svg" xmlns:xlink="http://www.w3.org/1999/xlink" version="1.1" width="1824" height="1115.92"><g id="Post office management App Diagram"><g id="Post office management"><rect width="352" height="248" rx="8" ry="8" fill-opacity="0.02" fill="#000000" stroke-opacity="1" stroke-width="2" stroke="#cfd2d2" opacity="1" x="552" y="536"></rect><text font-family="IBM Plex Sans Medium, Arial, sans-serif" font-size="15" font-weight="500" fill="#0c0d0d" opacity="1" x="568" y="567.375"><tspan dy="0" x="568">Post office management</tspan></text><g id="System" opacity="1"><text font-family="Courier New, monospace" font-size="12" text-anchor="middle" fill="#595f61" x="728" y="772.6552734375"><tspan dy="0" x="728">System</tspan></text></g></g><g id="call api [Json, HTTPS]"><polyline points="288,328 330.08,327.73 354.64,325.84000000000003 368.72,322.72 383.28,317.28 389.38,315.61 407.95,313.02 421.92,312.27 464,312" fill="none" stroke-width="1" stroke="#adb3b3" opacity="1"></polyline></g><g id="call api [Json, HTTPS]"><rect width="99.99000000000001" height="38.2" x="326.0097675772517" y="300.8982187074004" rx="4" ry="4" fill-opacity="0.8" fill="#e5e7e8" stroke-opacity="1" stroke-width="1" stroke="#cfd2d2" opacity="0.8"></rect><g opacity="1" fill="#434647"><text font-family="IBM Plex Sans Medium, Arial, sans-serif" font-size="14" text-anchor="middle" x="376.0047675772517" y="317.24821870740044"><tspan dy="0" x="376.0047675772517">call api [Json,</tspan></text><text font-family="IBM Plex Sans Medium, Arial, sans-serif" font-size="14" text-anchor="middle" x="376.0047675772517" y="333.24821870740044"><tspan dy="0" x="376.0047675772517">HTTPS]</tspan></text></g></g><g id="persist data"><polyline points="1196,480 1196,504 1195.46,511.45 1193.88,518.16 1191.3,524.14 1187.76,529.45 1183.31,534.1 1177.99,538.13 1171.85,541.5699999999999 1157.28,546.8199999999999 1148.9299999999998,548.69 1130.3600000000001,551.0699999999999 1109.56,551.86 1086.9,551.31 1037.3899999999999,547.23 931.6,534.23 893.28,530.31 869.1,528.69 846.44,528.14 825.64,528.9300000000001 816.05,529.91 798.72,533.1800000000001 784.15,538.4300000000001 778.01,541.87 772.69,545.9 768.24,550.55 764.7,555.86 762.12,561.84 760.54,568.55 760,576 760,600" fill="none" stroke-width="1" stroke="#adb3b3" opacity="1"></polyline></g><g id="persist data"><rect width="88.146" height="22.2" x="933.934109643348" y="528.8327358480342" rx="4" ry="4" fill-opacity="0.8" fill="#e5e7e8" stroke-opacity="1" stroke-width="1" stroke="#cfd2d2" opacity="0.8"></rect><g opacity="1" fill="#434647"><text font-family="IBM Plex Sans Medium, Arial, sans-serif" font-size="14" text-anchor="middle" x="978.007109643348" y="545.1827358480342"><tspan dy="0" x="978.007109643348">persist data</tspan></text></g></g><g id="flag [high value]"><polyline points="800,660 863.27,660.44 885.98,661.56 906.02,663.73 923.51,667.26 931.33,669.64 945.18,675.85 951.23,679.75 956.73,684.23 961.68,689.35 966.1,695.13 970,701.62 976.28,716.9 978.69,725.77 980.64,735.5 983.18,757.76 983.8,770.36 984,808" fill="none" stroke-width="1" stroke="#adb3b3" opacity="1"></polyline></g><g id="flag [high value]"><rect width="113.864" height="22.2" x="886.9683486449154" y="664.176235746204" rx="4" ry="4" fill-opacity="0.8" fill="#e5e7e8" stroke-opacity="1" stroke-width="1" stroke="#cfd2d2" opacity="0.8"></rect><g opacity="1" fill="#434647"><text font-family="IBM Plex Sans Medium, Arial, sans-serif" font-size="14" text-anchor="middle" x="943.9003486449154" y="680.5262357462042"><tspan dy="0" x="943.9003486449154">flag [high value]</tspan></text></g></g><g id="send up date"><polyline points="936,864 853.37,863.6800000000001 692.8199999999999,860.44 600,860" fill="none" stroke-width="1" stroke="#adb3b3" opacity="1"></polyline></g><g id="send up date"><rect width="94.964" height="22.2" x="720.5188255927736" y="850.8571963557807" rx="4" ry="4" fill-opacity="0.8" fill="#e5e7e8" stroke-opacity="1" stroke-width="1" stroke="#cfd2d2" opacity="0.8"></rect><g opacity="1" fill="#434647"><text font-family="IBM Plex Sans Medium, Arial, sans-serif" font-size="14" text-anchor="middle" x="768.0008255927736" y="867.2071963557809"><tspan dy="0" x="768.0008255927736">send up date</tspan></text></g></g><g id="prepare for pick up"><polyline points="1254,480 1253.55,513.89 1252.22,523.38 1250.0700000000002,532.47 1247.1399999999999,541.21 1243.48,549.6 1239.1399999999999,557.67 1228.62,572.95 1215.97,587.24 1193.83,607.1800000000001 1169.0700000000002,625.9 1108.47,668.24 1084.4299999999998,687.3 1070.03,700.76 1063.46,707.79 1051.8200000000002,722.55 1042.52,738.4 1038.8600000000001,746.79 1035.9299999999998,755.53 1033.78,764.62 1032.45,774.11 1032,784 1032,808" fill="none" stroke-width="1" stroke="#adb3b3" opacity="1"></polyline></g><g id="prepare for pick up"><rect width="133.632" height="22.2" x="1076.2333429018693" y="632.9801092662517" rx="4" ry="4" fill-opacity="0.8" fill="#e5e7e8" stroke-opacity="1" stroke-width="1" stroke="#cfd2d2" opacity="0.8"></rect><g opacity="1" fill="#434647"><text font-family="IBM Plex Sans Medium, Arial, sans-serif" font-size="14" text-anchor="middle" x="1143.0493429018693" y="649.3301092662516"><tspan dy="0" x="1143.0493429018693">prepare for pick up</tspan></text></g></g><g id="Locate data"><polyline points="200,760 239.64,760.55 253.29,762.14 265.14,764.6600000000001 275.38,768.02 284.2,772.12 291.79,776.87 298.34000000000003,782.15 309.07,793.95 326.37,819.73 335.96,832.12 341.65999999999997,837.85 348.21,843.13 355.8,847.88 364.62,851.98 374.86,855.3399999999999 386.71,857.86 400.36,859.45 440,860" fill="none" stroke-width="1" stroke="#adb3b3" opacity="1"></polyline></g><g id="Locate data"><rect width="86.816" height="22.2" x="276.48545385259797" y="798.978823139883" rx="4" ry="4" fill-opacity="0.8" fill="#e5e7e8" stroke-opacity="1" stroke-width="1" stroke="#cfd2d2" opacity="0.8"></rect><g opacity="1" fill="#434647"><text font-family="IBM Plex Sans Medium, Arial, sans-serif" font-size="14" text-anchor="middle" x="319.893453852598" y="815.3288231398832"><tspan dy="0" x="319.893453852598">Locate data</tspan></text></g></g><g id="retreive tracking data"><polyline points="520,800 519.64,768.3399999999999 516.81,753.13 514.4,745.5699999999999 507.76,730.56 503.58,723.09 493.65,708.25 475.29,686.16 461.08,671.54 445.57,656.99 411.58,628.03 329.36,563.1800000000001 303.01,541.51 270.91999999999996,512.46 250.16,490.5 238.35,475.75 228.42,460.91 220.62,445.95 217.6,438.43 213.44,423.29 212.36,415.65999999999997 212,384" fill="none" stroke-width="1" stroke="#adb3b3" opacity="1"></polyline></g><g id="retreive tracking data"><rect width="117.644" height="38.2" x="307.13807328762584" y="572.947851528856" rx="4" ry="4" fill-opacity="0.8" fill="#e5e7e8" stroke-opacity="1" stroke-width="1" stroke="#cfd2d2" opacity="0.8"></rect><g opacity="1" fill="#434647"><text font-family="IBM Plex Sans Medium, Arial, sans-serif" font-size="14" text-anchor="middle" x="365.96007328762585" y="589.2978515288561"><tspan dy="0" x="365.96007328762585">retreive tracking</tspan></text><text font-family="IBM Plex Sans Medium, Arial, sans-serif" font-size="14" text-anchor="middle" x="365.96007328762585" y="605.2978515288561"><tspan dy="0" x="365.96007328762585">data</tspan></text></g></g><g id="view"><polyline points="1576,664 1575.74,629.4300000000001 1573.72,608.86 1569.78,589.11 1564,570.22 1556.5,552.25 1552.13,543.62 1542.22,527.11 1530.83,511.64 1524.61,504.31 1511.18,490.48 1496.52,477.82 1488.76,471.93 1472.43,461.1 1446.11,447.28 1417.9099999999999,436.51 1388.15,428.96 1367.6100000000001,425.81 1346.63,424.2 1312,424" fill="none" stroke-width="1" stroke="#adb3b3" opacity="1"></polyline></g><g id="view"><rect width="41.833999999999996" height="22.2" x="1481.128145404241" y="471.4913738620524" rx="4" ry="4" fill-opacity="0.8" fill="#e5e7e8" stroke-opacity="1" stroke-width="1" stroke="#cfd2d2" opacity="0.8"></rect><g opacity="1" fill="#434647"><text font-family="IBM Plex Sans Medium, Arial, sans-serif" font-size="14" text-anchor="middle" x="1502.0451454042409" y="487.8413738620524"><tspan dy="0" x="1502.0451454042409">view</tspan></text></g></g><g id="view"><polyline points="1576,776 1575.79,806.47 1575.16,812.89 1572.67,825.5699999999999 1565.97,844.2 1559.61,856.35 1551.79,868.27 1537.47,885.71 1526.28,897.03 1513.82,908.0899999999999 1500.17,918.89 1485.37,929.4200000000001 1452.56,949.65 1415.8400000000001,968.7 1375.6599999999999,986.53 1332.47,1003.06 1274.92,1021.82 1226.58,1035.22 1164,1049.87 1112.77,1059.8400000000001 1048,1070 983.23,1077.5 932,1081.51 869.4200000000001,1083.92 821.0799999999999,1083.7 786.12,1082.25 763.53,1080.6399999999999 720.3399999999999,1075.8899999999999 680.1600000000001,1069.02 643.44,1059.98 626.52,1054.63 610.63,1048.71 595.83,1042.21 582.1800000000001,1035.13 569.72,1027.47 558.53,1019.2 544.21,1005.67 536.39,995.88 530.03,985.47 525.1800000000001,974.4200000000001 523.3299999999999,968.6600000000001 520.84,956.6600000000001 520.21,950.4100000000001 520,920" fill="none" stroke-width="1" stroke="#adb3b3" opacity="1"></polyline></g><g id="view"><rect width="41.833999999999996" height="22.2" x="1045.6839031998757" y="1055.9822112627648" rx="4" ry="4" fill-opacity="0.8" fill="#e5e7e8" stroke-opacity="1" stroke-width="1" stroke="#cfd2d2" opacity="0.8"></rect><g opacity="1" fill="#434647"><text font-family="IBM Plex Sans Medium, Arial, sans-serif" font-size="14" text-anchor="middle" x="1066.6009031998756" y="1072.3322112627648"><tspan dy="0" x="1066.6009031998756">view</tspan></text></g></g><g id="request data"><polyline points="1196,368 1196.33,330.25 1197.35,318.3 1199.06,308.03999999999996 1201.49,299.34000000000003 1204.6399999999999,292.08000000000004 1208.55,286.13 1213.22,281.37 1218.67,277.68 1224.92,274.91999999999996 1231.99,272.99 1248.65,271.07 1344,272" fill="none" stroke-width="1" stroke="#adb3b3" opacity="1"></polyline></g><g id="request data"><rect width="93.41000000000001" height="22.2" x="1185.5337332134595" y="261.8613344675965" rx="4" ry="4" fill-opacity="0.8" fill="#e5e7e8" stroke-opacity="1" stroke-width="1" stroke="#cfd2d2" opacity="0.8"></rect><g opacity="1" fill="#434647"><text font-family="IBM Plex Sans Medium, Arial, sans-serif" font-size="14" text-anchor="middle" x="1232.2387332134595" y="278.21133446759654"><tspan dy="0" x="1232.2387332134595">request data</tspan></text></g></g><g id="view"><polyline points="1496,720 1429.72,719.49 1364.33,717.31 1272.4,712.63 1055.5900000000001,699.25 961.49,694.06 875.21,690.72 800,690" fill="none" stroke-width="1" stroke="#adb3b3" opacity="1"></polyline></g><g id="view"><rect width="41.833999999999996" height="22.2" x="1127.0865494175134" y="693.8531192805051" rx="4" ry="4" fill-opacity="0.8" fill="#e5e7e8" stroke-opacity="1" stroke-width="1" stroke="#cfd2d2" opacity="0.8"></rect><g opacity="1" fill="#434647"><text font-family="IBM Plex Sans Medium, Arial, sans-serif" font-size="14" text-anchor="middle" x="1148.0035494175133" y="710.203119280505"><tspan dy="0" x="1148.0035494175133">view</tspan></text></g></g><g id="payment successful"><polyline points="1472,336 1471.53,373.02 1470.15,383.74 1467.86,392.33 1464.68,399 1460.63,403.93 1455.73,407.31 1449.98,409.32 1443.42,410.17 1436.04,410.04 1418.9299999999998,407.59000000000003 1387.62,401.3 1363.17,397.58 1349.9099999999999,396.43 1312,396" fill="none" stroke-width="1" stroke="#adb3b3" opacity="1"></polyline></g><g id="payment successful"><rect width="139.582" height="22.2" x="1352.0721699479082" y="396.91000387915693" rx="4" ry="4" fill-opacity="0.8" fill="#e5e7e8" stroke-opacity="1" stroke-width="1" stroke="#cfd2d2" opacity="0.8"></rect><g opacity="1" fill="#434647"><text font-family="IBM Plex Sans Medium, Arial, sans-serif" font-size="14" text-anchor="middle" x="1421.863169947908" y="413.26000387915695"><tspan dy="0" x="1421.863169947908">payment successful</tspan></text></g></g><g id="request"><polyline points="1472,208 1472.24,170.2 1474.22,146.69 1476.02,136.82999999999998 1478.38,128.14999999999998 1481.35,120.56 1484.93,114 1489.17,108.38 1494.08,103.63 1499.69,99.69 1506.03,96.47000000000003 1513.11,93.91000000000003 1529.65,90.44 1560.74,88.27999999999997 1624,88" fill="none" stroke-width="1" stroke="#adb3b3" opacity="1"></polyline></g><g id="request"><rect width="61.336" height="22.2" x="1473.124410435409" y="86.50644138769462" rx="4" ry="4" fill-opacity="0.8" fill="#e5e7e8" stroke-opacity="1" stroke-width="1" stroke="#cfd2d2" opacity="0.8"></rect><g opacity="1" fill="#434647"><text font-family="IBM Plex Sans Medium, Arial, sans-serif" font-size="14" text-anchor="middle" x="1503.7924104354088" y="102.85644138769462"><tspan dy="0" x="1503.7924104354088">request</tspan></text></g></g><g id="Sends data to"><polyline points="632,312 686.6600000000001,312.35 729.3399999999999,315.65 784,316" fill="none" stroke-width="1" stroke="#adb3b3" opacity="1"></polyline></g><g id="Sends data to"><rect width="99.836" height="22.2" x="658.082" y="302.9" rx="4" ry="4" fill-opacity="0.8" fill="#e5e7e8" stroke-opacity="1" stroke-width="1" stroke="#cfd2d2" opacity="0.8"></rect><g opacity="1" fill="#434647"><text font-family="IBM Plex Sans Medium, Arial, sans-serif" font-size="14" text-anchor="middle" x="708" y="319.25"><tspan dy="0" x="708">Sends data to</tspan></text></g></g><g id="Sends data to"><polyline points="952,316 976,316 989.78,317.21000000000004 1000.04,320.64 1007.3,325.97 1012.05,332.88 1014.79,341.05 1016.03,350.17 1015.73,380.07 1015.97,389.83 1017.21,398.95 1019.95,407.13 1024.7,414.03 1031.96,419.36 1042.22,422.79 1056,424 1080,424" fill="none" stroke-width="1" stroke="#adb3b3" opacity="1"></polyline></g><g id="Sends data to"><rect width="99.836" height="22.2" x="965.913018219002" y="358.90185083947495" rx="4" ry="4" fill-opacity="0.8" fill="#e5e7e8" stroke-opacity="1" stroke-width="1" stroke="#cfd2d2" opacity="0.8"></rect><g opacity="1" fill="#434647"><text font-family="IBM Plex Sans Medium, Arial, sans-serif" font-size="14" text-anchor="middle" x="1015.831018219002" y="375.25185083947497"><tspan dy="0" x="1015.831018219002">Sends data to</tspan></text></g></g><g id="Connection"><polyline points="1708,144 1707.85,194.99 1706.87,217.13 1705.81,226.51 1704.24,234.84 1702.06,242.17 1699.15,248.55 1695.43,254.04 1690.79,258.68 1685.13,262.53 1678.34,265.64 1670.33,268.07 1660.99,269.87 1637.93,271.78 1600,272" fill="none" stroke-width="1" stroke="#adb3b3" opacity="1"></polyline></g><a href="https://app.icepanel.io/landscapes/pMzFyeYjGnWRGy8yUsah/versions/latest/model/objects?object=cYRw8cwB8o&amp;focus=cYRw8cwB8o" id="web application" target="_blank"><rect width="152" height="112" rx="8" ry="8" fill-opacity="0.8" fill="#f5f6f6" stroke-opacity="1" stroke-width="1" stroke="#adb3b3" opacity="1" x="136" y="272"></rect><text font-family="IBM Plex Sans Medium, Arial, sans-serif" font-size="19" font-weight="500" text-anchor="middle" fill="#0c0d0d" opacity="1" x="212" y="317.125"><tspan dy="0" x="212">web application</tspan></text><g opacity="1"><text font-family="IBM Plex Sans, Arial, sans-serif" font-size="14" text-anchor="middle" fill="#595f61" x="212" y="345.25"><tspan dy="0" x="212">React/angular</tspan></text></g><g id="System" opacity="1"><text font-family="Courier New, monospace" font-size="12" text-anchor="middle" fill="#595f61" x="212" y="372.6552734375"><tspan dy="0" x="212">System</tspan></text></g></a><a href="https://app.icepanel.io/landscapes/pMzFyeYjGnWRGy8yUsah/versions/latest/model/objects?object=ssldgyD4gU&amp;focus=ssldgyD4gU" id="API gateway" target="_blank"><rect width="168" height="112" rx="8" ry="8" fill-opacity="0.8" fill="#f5f6f6" stroke-opacity="1" stroke-width="1" stroke="#adb3b3" opacity="1" x="464" y="256"></rect><text font-family="IBM Plex Sans Medium, Arial, sans-serif" font-size="21" font-weight="500" text-anchor="middle" fill="#0c0d0d" opacity="1" x="548" y="301.875"><tspan dy="0" x="548">API gateway</tspan></text><g opacity="1"><text font-family="IBM Plex Sans, Arial, sans-serif" font-size="14" text-anchor="middle" fill="#595f61" x="548" y="329.25"><tspan dy="0" x="548">aws api</tspan></text></g><g id="System" opacity="1"><text font-family="Courier New, monospace" font-size="12" text-anchor="middle" fill="#595f61" x="548" y="356.6552734375"><tspan dy="0" x="548">System</tspan></text></g></a><a href="https://app.icepanel.io/landscapes/pMzFyeYjGnWRGy8yUsah/versions/latest/model/objects?object=e1n0Acf8vA&amp;focus=e1n0Acf8vA" id="Shipping service" target="_blank"><rect width="232" height="112" rx="8" ry="8" fill-opacity="0.8" fill="#f5f6f6" stroke-opacity="1" stroke-width="1" stroke="#adb3b3" opacity="1" x="1080" y="368"></rect><text font-family="IBM Plex Sans Medium, Arial, sans-serif" font-size="21" font-weight="500" text-anchor="middle" fill="#0c0d0d" opacity="1" x="1196" y="413.875"><tspan dy="0" x="1196">Shipping service</tspan></text><g opacity="1"><text font-family="IBM Plex Sans, Arial, sans-serif" font-size="14" text-anchor="middle" fill="#595f61" x="1195.9999999999998" y="441.25"><tspan dy="0" x="1195.9999999999998">Jave/ Spring boot</tspan></text></g><g id="System" opacity="1"><text font-family="Courier New, monospace" font-size="12" text-anchor="middle" fill="#595f61" x="1196" y="468.6552734375"><tspan dy="0" x="1196">System</tspan></text></g></a><a href="https://app.icepanel.io/landscapes/pMzFyeYjGnWRGy8yUsah/versions/latest/model/objects?object=dBMNJyZhuH&amp;focus=dBMNJyZhuH" id="Logistic engine" target="_blank"><rect width="192" height="112" rx="8" ry="8" fill-opacity="0.8" fill="#f5f6f6" stroke-opacity="1" stroke-width="1" stroke="#adb3b3" opacity="1" x="936" y="808"></rect><text font-family="IBM Plex Sans Medium, Arial, sans-serif" font-size="21" font-weight="500" text-anchor="middle" fill="#0c0d0d" opacity="1" x="1032" y="853.8749999999999"><tspan dy="0" x="1032">Logistic engine</tspan></text><g opacity="1"><text font-family="IBM Plex Sans, Arial, sans-serif" font-size="14" text-anchor="middle" fill="#595f61" x="1032" y="881.2500000000001"><tspan dy="0" x="1032">Go/ Python</tspan></text></g><g id="System" opacity="1"><text font-family="Courier New, monospace" font-size="12" text-anchor="middle" fill="#595f61" x="1032" y="908.6552734375"><tspan dy="0" x="1032">System</tspan></text></g></a><a href="https://app.icepanel.io/landscapes/pMzFyeYjGnWRGy8yUsah/versions/latest/model/objects?object=Z67HgjkNJj&amp;focus=Z67HgjkNJj" id="Customer database" target="_blank"><rect width="160" height="120" rx="8" ry="8" fill-opacity="0.8" fill="#f5f6f6" stroke-opacity="1" stroke-width="1" stroke="#adb3b3" opacity="1" x="640" y="600"></rect><text font-family="IBM Plex Sans Medium, Arial, sans-serif" font-size="16" font-weight="500" text-anchor="middle" fill="#0c0d0d" opacity="1" x="720" y="645.9999999999999"><tspan dy="0" x="720">Customer database</tspan></text><g opacity="1"><text font-family="IBM Plex Sans, Arial, sans-serif" font-size="14" text-anchor="middle" fill="#595f61" x="719.9999999999999" y="679.2500000000001"><tspan dy="0" x="719.9999999999999">PostgreSQL</tspan></text></g><g id="System" opacity="1"><text font-family="Courier New, monospace" font-size="12" text-anchor="middle" fill="#595f61" x="720" y="708.6552734375"><tspan dy="0" x="720">System</tspan></text></g></a><a href="https://app.icepanel.io/landscapes/pMzFyeYjGnWRGy8yUsah/versions/latest/model/objects?object=z2vBAM3tPp&amp;focus=z2vBAM3tPp" id="Tracking store service" target="_blank"><rect width="160" height="120" rx="8" ry="8" fill-opacity="0.8" fill="#f5f6f6" stroke-opacity="1" stroke-width="1" stroke="#adb3b3" opacity="1" x="440" y="800"></rect><text font-family="IBM Plex Sans Medium, Arial, sans-serif" font-size="14" font-weight="500" text-anchor="middle" fill="#0c0d0d" opacity="1" x="520" y="845.2500000000001"><tspan dy="0" x="520">Tracking store service</tspan></text><g opacity="1"><text font-family="IBM Plex Sans, Arial, sans-serif" font-size="14" text-anchor="middle" fill="#595f61" x="520" y="879.2500000000001"><tspan dy="0" x="520">Cassandra / NoSQL</tspan></text></g><g id="System" opacity="1"><text font-family="Courier New, monospace" font-size="12" text-anchor="middle" fill="#595f61" x="520" y="908.6552734375"><tspan dy="0" x="520">System</tspan></text></g></a><a href="https://app.icepanel.io/landscapes/pMzFyeYjGnWRGy8yUsah/versions/latest/model/objects?object=ZwbBmLKQK9&amp;focus=ZwbBmLKQK9" id="Scan devices" target="_blank"><rect width="168" height="112" rx="8" ry="8" fill-opacity="0.8" fill="#f5f6f6" stroke-opacity="1" stroke-width="1" stroke="#adb3b3" opacity="1" x="32" y="704"></rect><text font-family="IBM Plex Sans Medium, Arial, sans-serif" font-size="24" font-weight="500" text-anchor="middle" fill="#0c0d0d" opacity="1" x="116" y="765.0000000000001"><tspan dy="0" x="116">Scan devices</tspan></text><g id="System" opacity="1"><text font-family="Courier New, monospace" font-size="12" text-anchor="middle" fill="#595f61" x="116" y="804.6552734375"><tspan dy="0" x="116">System</tspan></text></g></a><a href="https://app.icepanel.io/landscapes/pMzFyeYjGnWRGy8yUsah/versions/latest/model/objects?object=1mZI2wSDvj&amp;focus=1mZI2wSDvj" id="Bank API" target="_blank"><rect width="256" height="128" rx="8" ry="8" fill-opacity="0.8" fill="#f5f6f6" stroke-opacity="1" stroke-width="1" stroke="#adb3b3" opacity="1" x="1344" y="208"></rect><text font-family="IBM Plex Sans Medium, Arial, sans-serif" font-size="24" font-weight="500" text-anchor="middle" fill="#0c0d0d" opacity="1" x="1472.0000000000002" y="277"><tspan dy="0" x="1472.0000000000002">Bank API</tspan></text><g id="System" opacity="1"><text font-family="Courier New, monospace" font-size="12" text-anchor="middle" fill="#595f61" x="1472" y="324.6552734375"><tspan dy="0" x="1472">System</tspan></text></g></a><a href="https://app.icepanel.io/landscapes/pMzFyeYjGnWRGy8yUsah/versions/latest/model/objects?object=D1Ht6MttFN&amp;focus=D1Ht6MttFN" id="Office Service" target="_blank"><rect width="160" height="112" rx="8" ry="8" fill-opacity="0.8" fill="#f5f6f6" stroke-opacity="1" stroke-width="1" stroke="#adb3b3" opacity="1" x="1496" y="664"></rect><text font-family="IBM Plex Sans Medium, Arial, sans-serif" font-size="23" font-weight="500" text-anchor="middle" fill="#0c0d0d" opacity="1" x="1576" y="724.625"><tspan dy="0" x="1576">Office Service</tspan></text><g id="System" opacity="1"><text font-family="Courier New, monospace" font-size="12" text-anchor="middle" fill="#595f61" x="1576" y="764.6552734375"><tspan dy="0" x="1576">System</tspan></text></g></a><a href="https://app.icepanel.io/landscapes/pMzFyeYjGnWRGy8yUsah/versions/latest/model/objects?object=NOskQyW79t&amp;focus=NOskQyW79t" id="Bank System'" target="_blank"><rect width="168" height="112" rx="8" ry="8" fill-opacity="0.8" fill="#f5f6f6" stroke-opacity="1" stroke-width="1" stroke="#adb3b3" opacity="1" x="1624" y="32"></rect><text font-family="IBM Plex Sans Medium, Arial, sans-serif" font-size="24" font-weight="500" text-anchor="middle" fill="#0c0d0d" opacity="1" x="1708" y="93"><tspan dy="0" x="1708">Bank System'</tspan></text><g id="System" opacity="1"><text font-family="Courier New, monospace" font-size="12" text-anchor="middle" fill="#595f61" x="1708" y="132.6552734375"><tspan dy="0" x="1708">System</tspan></text></g></a><a href="https://app.icepanel.io/landscapes/pMzFyeYjGnWRGy8yUsah/versions/latest/model/objects?object=WmlQRMb8X6&amp;focus=WmlQRMb8X6" id="Fronend/Backend" target="_blank"><rect width="168" height="120" rx="8" ry="8" fill-opacity="0.8" fill="#f5f6f6" stroke-opacity="1" stroke-width="1" stroke="#adb3b3" opacity="1" x="784" y="256"></rect><text font-family="IBM Plex Sans Medium, Arial, sans-serif" font-size="18" font-weight="500" text-anchor="middle" fill="#0c0d0d" opacity="1" x="867.9999999999999" y="302.74999999999994"><tspan dy="0" x="867.9999999999999">Fronend/Backend</tspan></text><g opacity="1"><text font-family="IBM Plex Sans, Arial, sans-serif" font-size="14" text-anchor="middle" fill="#595f61" x="868" y="335.25"><tspan dy="0" x="868">React, Vue, or HTML</tspan></text></g><g id="System" opacity="1"><text font-family="Courier New, monospace" font-size="12" text-anchor="middle" fill="#595f61" x="868" y="364.6552734375"><tspan dy="0" x="868">System</tspan></text></g></a><g id="call api [Json, HTTPS]"><polygon points="456.20482494823085,240.25730740177414 448.20482494823085,256.25730740177414 464.20482494823085,256.25730740177414 456.20482494823085,240.25730740177414" fill="#adb3b3" opacity="1" transform="matrix(0.006416217734862658,0.9999794158631361,-0.9999794158631361,0.006416217734862658,701.3252524239133,-145.73697756235782)"></polygon><circle r="4" fill="#adb3b3" opacity="1" cx="288" cy="328"></circle></g><g id="persist data"><polygon points="695.9999999999999,520 687.9999999999999,536 703.9999999999999,536 695.9999999999999,520" fill="#adb3b3" opacity="1" transform="matrix(-1,1.2246467991473532e-16,-1.2246467991473532e-16,-1,1456,1120)"></polygon><circle r="4" fill="#adb3b3" opacity="1" cx="1196" cy="480"></circle></g><g id="flag [high value]"><polygon points="920.1279738328831,727.8305351721452 912.1279738328831,743.8305351721452 928.1279738328831,743.8305351721452 920.1279738328831,727.8305351721452" fill="#adb3b3" opacity="1" transform="matrix(-0.9999858836775497,0.00531342127352705,-0.00531342127352705,-0.9999858836775497,1907.9822552588153,1530.9312333310904)"></polygon><circle r="4" fill="#adb3b3" opacity="1" cx="800" cy="660"></circle></g><g id="send up date"><polygon points="544.1519593888561,852.1892526470907 536.1519593888561,868.1892526470907 552.1519593888561,868.1892526470907 544.1519593888561,852.1892526470907" fill="#adb3b3" opacity="1" transform="matrix(0.004740304422165441,-0.9999887646938765,0.9999887646938765,0.004740304422165441,-254.75912397938305,1400.1062091921701)"></polygon><circle r="4" fill="#adb3b3" opacity="1" cx="936" cy="864"></circle></g><g id="prepare for pick up"><polygon points="968,728 960,744 976,744 968,728" fill="#adb3b3" opacity="1" transform="matrix(-1,1.2246467991473532e-16,-1.2246467991473532e-16,-1,2000,1536)"></polygon><circle r="4" fill="#adb3b3" opacity="1" cx="1254" cy="480"></circle></g><g id="Locate data"><polygon points="431.55373695545825,787.448138208662 423.55373695545825,803.448138208662 439.55373695545825,803.448138208662 431.55373695545825,787.448138208662" fill="#adb3b3" opacity="1" transform="matrix(-0.013873538516857443,0.9999037578332333,-0.9999037578332333,-0.013873538516857443,1233.35952988537,439.4124887867282)"></polygon><circle r="4" fill="#adb3b3" opacity="1" cx="200" cy="760"></circle></g><g id="retreive tracking data"><polygon points="211.72504955649995,384.36125689833796 203.72504955649995,400.36125689833796 219.72504955649995,400.36125689833796 211.72504955649995,384.36125689833796" fill="#adb3b3" opacity="1" transform="matrix(0.9999353585524747,-0.011370079882467972,0.011370079882467972,0.9999353585524747,-4.081581537479167,2.0709194962574315)"></polygon><circle r="4" fill="#adb3b3" opacity="1" cx="520" cy="800"></circle></g><g id="view"><polygon points="1256.18520802009,416.23047606011284 1248.18520802009,432.23047606011284 1264.18520802009,432.23047606011284 1256.18520802009,416.23047606011284" fill="#adb3b3" opacity="1" transform="matrix(0.005775242986687917,-0.9999833231451636,0.9999833231451636,0.005775242986687917,888.5216905425159,1677.7604266640164)"></polygon><circle r="4" fill="#adb3b3" opacity="1" cx="1576" cy="664"></circle></g><g id="view"><polygon points="519.8335060211965,920.2200209534808 511.8335060211965,936.2200209534808 527.8335060211965,936.2200209534808 519.8335060211965,920.2200209534808" fill="#adb3b3" opacity="1" transform="matrix(0.9999761570372105,-0.0069054584997630414,0.0069054584997630414,0.9999761570372105,-6.175652815600984,3.3916085208526283)"></polygon><circle r="4" fill="#adb3b3" opacity="1" cx="1576" cy="776"></circle></g><g id="request data"><polygon points="1335.6867600809655,199.611398968382 1327.6867600809655,215.611398968382 1343.6867600809655,215.611398968382 1335.6867600809655,199.611398968382" fill="#adb3b3" opacity="1" transform="matrix(-0.009753075689484556,0.9999524376262079,-0.9999524376262079,-0.009753075689484556,1556.6289590449232,-1061.6764065653908)"></polygon><circle r="4" fill="#adb3b3" opacity="1" cx="1196" cy="368"></circle></g><g id="view"><polygon points="744.3074278823347,682.3814440202108 736.3074278823347,698.3814440202108 752.3074278823347,698.3814440202108 744.3074278823347,682.3814440202108" fill="#adb3b3" opacity="1" transform="matrix(0.009572756411178234,-0.9999541801176153,0.9999541801176153,0.009572756411178234,110.52474891514748,1427.7410524604177)"></polygon><circle r="4" fill="#adb3b3" opacity="1" cx="1496" cy="720"></circle></g><g id="payment successful"><polygon points="1256.3644852909395,388.45161866892585 1248.3644852909395,404.45161866892585 1264.3644852909395,404.45161866892585 1256.3644852909395,388.45161866892585" fill="#adb3b3" opacity="1" transform="matrix(0.011341924074743576,-0.9999356783105015,0.9999356783105015,0.011341924074743576,909.3237765931012,1647.8778850389656)"></polygon><circle r="4" fill="#adb3b3" opacity="1" cx="1472" cy="336"></circle></g><g id="request"><polygon points="1616.1414012092143,16.177358825108655 1608.1414012092143,32.177358825108655 1624.1414012092143,32.177358825108655 1616.1414012092143,16.177358825108655" fill="#adb3b3" opacity="1" transform="matrix(0.004426134323322969,0.9999902046195012,-0.9999902046195012,0.004426134323322969,1633.0239414344883,-1528.197173652406)"></polygon><circle r="4" fill="#adb3b3" opacity="1" cx="1472" cy="208"></circle></g><g id="Sends data to"><polygon points="775.7946091639805,243.744532453871 767.7946091639805,259.744532453871 783.7946091639805,259.744532453871 775.7946091639805,243.744532453871" fill="#adb3b3" opacity="1" transform="matrix(-0.006403088638972945,0.9999795000178161,-0.9999795000178161,-0.006403088638972945,1032.7070173434126,-458.2179875417471)"></polygon><circle r="4" fill="#adb3b3" opacity="1" cx="632" cy="312"></circle></g><g id="Sends data to"><polygon points="1072,351.99999999999994 1064,367.99999999999994 1080,367.99999999999994 1072,351.99999999999994" fill="#adb3b3" opacity="1" transform="matrix(6.123233995736766e-17,1,-1,6.123233995736766e-17,1432,-648)"></polygon><circle r="4" fill="#adb3b3" opacity="1" cx="952" cy="316"></circle></g><g id="Connection"><circle r="4" fill="#adb3b3" opacity="1" cx="1600" cy="272"></circle><circle r="4" fill="#adb3b3" opacity="1" cx="1708" cy="144"></circle></g></g></svg>