<svg xmlns="http://www.w3.org/2000/svg" xmlns:xlink="http://www.w3.org/1999/xlink" version="1.1" width="2168" height="784"><g id="Shipping service App Diagram"><g id="Shipping service"><rect width="768" height="512" rx="8" ry="8" fill-opacity="0.02" fill="#000000" stroke-opacity="1" stroke-width="2" stroke="#cfd2d2" opacity="1" x="408" y="32"></rect><text font-family="IBM Plex Sans Medium, Arial, sans-serif" font-size="15" font-weight="500" fill="#0c0d0d" opacity="1" x="424" y="63.375"><tspan dy="0" x="424">Shipping service</tspan></text><g opacity="1"><text font-family="IBM Plex Sans, Arial, sans-serif" font-size="14" text-anchor="middle" fill="#595f61" x="792.0000000000001" y="509.25"><tspan dy="0" x="792.0000000000001">Jave/ Spring boot</tspan></text></g><g id="System" opacity="1"><text font-family="Courier New, monospace" font-size="12" text-anchor="middle" fill="#595f61" x="792" y="532.6552734375"><tspan dy="0" x="792">System</tspan></text></g></g><g id="choose"><polyline points="192,208 233.25,208.07000000000005 270.5,209.01 292.90999999999997,210.69000000000005 321.47,213.92999999999995 347.83000000000004,215.40999999999997 416,216" fill="none" stroke-width="1" stroke="#adb3b3" opacity="1"></polyline></g><g id="choose"><rect width="57.668" height="22.2" x="275.1710626521101" y="200.84868357818058" rx="4" ry="4" fill-opacity="0.8" fill="#e5e7e8" stroke-opacity="1" stroke-width="1" stroke="#cfd2d2" opacity="0.8"></rect><g opacity="1" fill="#434647"><text font-family="IBM Plex Sans Medium, Arial, sans-serif" font-size="14" text-anchor="middle" x="304.0050626521101" y="217.19868357818055"><tspan dy="0" x="304.0050626521101">choose</tspan></text></g></g><g id="Sends data to"><polyline points="552,216 720,216" fill="none" stroke-width="1" stroke="#adb3b3" opacity="1"></polyline></g><g id="Sends data to"><rect width="99.836" height="22.2" x="586.082" y="204.9" rx="4" ry="4" fill-opacity="0.8" fill="#e5e7e8" stroke-opacity="1" stroke-width="1" stroke="#cfd2d2" opacity="0.8"></rect><g opacity="1" fill="#434647"><text font-family="IBM Plex Sans Medium, Arial, sans-serif" font-size="14" text-anchor="middle" x="636" y="221.24999999999997"><tspan dy="0" x="636">Sends data to</tspan></text></g></g><g id="Sends data to"><polyline points="864,216 1048,216" fill="none" stroke-width="1" stroke="#adb3b3" opacity="1"></polyline></g><g id="Sends data to"><rect width="99.836" height="22.2" x="906.082" y="204.9" rx="4" ry="4" fill-opacity="0.8" fill="#e5e7e8" stroke-opacity="1" stroke-width="1" stroke="#cfd2d2" opacity="0.8"></rect><g opacity="1" fill="#434647"><text font-family="IBM Plex Sans Medium, Arial, sans-serif" font-size="14" text-anchor="middle" x="956" y="221.24999999999997"><tspan dy="0" x="956">Sends data to</tspan></text></g></g><g id="Sends data to"><polyline points="1240,216 1295.7,215.55999999999995 1315.12,214.40999999999997 1342.23,210.33000000000004 1357.3600000000001,208.94000000000005 1382.31,208.12 1424,208" fill="none" stroke-width="1" stroke="#adb3b3" opacity="1"></polyline></g><g id="Sends data to"><rect width="99.836" height="22.2" x="1282.0655420602552" y="200.77207113220803" rx="4" ry="4" fill-opacity="0.8" fill="#e5e7e8" stroke-opacity="1" stroke-width="1" stroke="#cfd2d2" opacity="0.8"></rect><g opacity="1" fill="#434647"><text font-family="IBM Plex Sans Medium, Arial, sans-serif" font-size="14" text-anchor="middle" x="1331.983542060255" y="217.122071132208"><tspan dy="0" x="1331.983542060255">Sends data to</tspan></text></g></g><g id="calculate price"><polyline points="1500,264 1500.27,306.72 1502.0700000000002,325.95000000000005 1505.9299999999998,338.04999999999995 1506.99,345.27 1507.73,357.28 1508,400" fill="none" stroke-width="1" stroke="#adb3b3" opacity="1"></polyline></g><g id="calculate price"><rect width="106.164" height="22.2" x="1450.9204485535324" y="320.90767551754976" rx="4" ry="4" fill-opacity="0.8" fill="#e5e7e8" stroke-opacity="1" stroke-width="1" stroke="#cfd2d2" opacity="0.8"></rect><g opacity="1" fill="#434647"><text font-family="IBM Plex Sans Medium, Arial, sans-serif" font-size="14" text-anchor="middle" x="1504.0024485535323" y="337.2576755175498"><tspan dy="0" x="1504.0024485535323">calculate price</tspan></text></g></g><g id="request"><polyline points="1608,456 1880,456" fill="none" stroke-width="1" stroke="#adb3b3" opacity="1"></polyline></g><g id="request"><rect width="61.336" height="22.2" x="1713.332" y="444.9" rx="4" ry="4" fill-opacity="0.8" fill="#e5e7e8" stroke-opacity="1" stroke-width="1" stroke="#cfd2d2" opacity="0.8"></rect><g opacity="1" fill="#434647"><text font-family="IBM Plex Sans Medium, Arial, sans-serif" font-size="14" text-anchor="middle" x="1744" y="461.25"><tspan dy="0" x="1744">request</tspan></text></g></g><g id="success"><polyline points="2008,520 2008,544 2006.55,561.94 2002.33,578.3499999999999 1995.54,593.3 1986.38,606.8499999999999 1980.98,613.1199999999999 1968.65,624.69 1954.45,635.04 1946.71,639.77 1930.09,648.3900000000001 1912.1,655.95 1883,665.44 1851.95,672.9000000000001 1819.6399999999999,678.5799999999999 1786.74,682.69 1743.12,686.1199999999999 1701.27,687.71 1648,688" fill="none" stroke-width="1" stroke="#adb3b3" opacity="1"></polyline></g><g id="success"><rect width="62.89" height="22.2" x="1839.6866397127812" y="657.191464339538" rx="4" ry="4" fill-opacity="0.8" fill="#e5e7e8" stroke-opacity="1" stroke-width="1" stroke="#cfd2d2" opacity="0.8"></rect><g opacity="1" fill="#434647"><text font-family="IBM Plex Sans Medium, Arial, sans-serif" font-size="14" text-anchor="middle" x="1871.1316397127812" y="673.5414643395379"><tspan dy="0" x="1871.1316397127812">success</tspan></text></g></g><g id="Sends data to"><polyline points="736,644 671.99,644.6300000000001 646.8199999999999,646.96 630.53,647.7 576,648" fill="none" stroke-width="1" stroke="#adb3b3" opacity="1"></polyline></g><g id="Sends data to"><rect width="99.836" height="22.2" x="606.0892649517051" y="635.0095301018089" rx="4" ry="4" fill-opacity="0.8" fill="#e5e7e8" stroke-opacity="1" stroke-width="1" stroke="#cfd2d2" opacity="0.8"></rect><g opacity="1" fill="#434647"><text font-family="IBM Plex Sans Medium, Arial, sans-serif" font-size="14" text-anchor="middle" x="656.0072649517051" y="651.3595301018088"><tspan dy="0" x="656.0072649517051">Sends data to</tspan></text></g></g><g id="Sends data to"><polyline points="392,648 350.86,647.8199999999999 325.32000000000005,646.52 308.5,644.29 281.73,637.06 267.96000000000004,634.5 258.67999999999995,633.48 233.14,632.1800000000001 192,632" fill="none" stroke-width="1" stroke="#adb3b3" opacity="1"></polyline></g><g id="Sends data to"><rect width="99.836" height="22.2" x="242.1199245604551" y="628.7439482469962" rx="4" ry="4" fill-opacity="0.8" fill="#e5e7e8" stroke-opacity="1" stroke-width="1" stroke="#cfd2d2" opacity="0.8"></rect><g opacity="1" fill="#434647"><text font-family="IBM Plex Sans Medium, Arial, sans-serif" font-size="14" text-anchor="middle" x="292.0379245604551" y="645.0939482469963"><tspan dy="0" x="292.0379245604551">Sends data to</tspan></text></g></g><g id="Sends data to"><polyline points="1392,688 1349.97,687.44 1337.08,685.9100000000001 1328.2,683.6199999999999 1322.18,680.79 1309.82,671.21 1303.8,668.3800000000001 1294.92,666.0899999999999 1282.03,664.56 1240,664" fill="none" stroke-width="1" stroke="#adb3b3" opacity="1"></polyline></g><g id="Sends data to"><rect width="99.836" height="22.2" x="1266.082" y="664.9" rx="4" ry="4" fill-opacity="0.8" fill="#e5e7e8" stroke-opacity="1" stroke-width="1" stroke="#cfd2d2" opacity="0.8"></rect><g opacity="1" fill="#434647"><text font-family="IBM Plex Sans Medium, Arial, sans-serif" font-size="14" text-anchor="middle" x="1316" y="681.2500000000001"><tspan dy="0" x="1316">Sends data to</tspan></text></g></g><g id="Sends data to"><polyline points="1064,664 1022.69,663.44 1011.05,661.9200000000001 1003.67,659.6800000000001 999.13,656.96 992.87,651.04 988.33,648.3199999999999 980.95,646.0799999999999 969.31,644.56 928,644" fill="none" stroke-width="1" stroke="#adb3b3" opacity="1"></polyline></g><g id="Sends data to"><rect width="99.836" height="22.2" x="946.082" y="642.9" rx="4" ry="4" fill-opacity="0.8" fill="#e5e7e8" stroke-opacity="1" stroke-width="1" stroke="#cfd2d2" opacity="0.8"></rect><g opacity="1" fill="#434647"><text font-family="IBM Plex Sans Medium, Arial, sans-serif" font-size="14" text-anchor="middle" x="996" y="659.2500000000001"><tspan dy="0" x="996">Sends data to</tspan></text></g></g><a href="https://app.icepanel.io/landscapes/pMzFyeYjGnWRGy8yUsah/versions/latest/model/objects?object=MyUVHbI1tZ&amp;focus=MyUVHbI1tZ" id="Choose size parcel box" target="_blank"><rect width="136" height="112" rx="8" ry="8" fill-opacity="0.8" fill="#f5f6f6" stroke-opacity="1" stroke-width="1" stroke="#adb3b3" opacity="1" x="416" y="160"></rect><text font-family="IBM Plex Sans Medium, Arial, sans-serif" font-size="21" font-weight="500" text-anchor="middle" fill="#0c0d0d" opacity="1" x="484" y="208.37500000000003"><tspan dy="0" x="484">Choose size</tspan></text><text font-family="IBM Plex Sans Medium, Arial, sans-serif" font-size="21" font-weight="500" text-anchor="middle" fill="#0c0d0d" opacity="1" x="484" y="231.37500000000003"><tspan dy="0" x="484">parcel box</tspan></text><g id="System" opacity="1"><text font-family="Courier New, monospace" font-size="12" text-anchor="middle" fill="#595f61" x="484" y="260.6552734375"><tspan dy="0" x="484">System</tspan></text></g></a><a href="https://app.icepanel.io/landscapes/pMzFyeYjGnWRGy8yUsah/versions/latest/model/objects?object=zEKPaYRA6y&amp;focus=zEKPaYRA6y" id="Weight scale" target="_blank"><rect width="144" height="112" rx="8" ry="8" fill-opacity="0.8" fill="#f5f6f6" stroke-opacity="1" stroke-width="1" stroke="#adb3b3" opacity="1" x="720" y="160"></rect><text font-family="IBM Plex Sans Medium, Arial, sans-serif" font-size="22" font-weight="500" text-anchor="middle" fill="#0c0d0d" opacity="1" x="791.9999999999999" y="220.25"><tspan dy="0" x="791.9999999999999">Weight scale</tspan></text><g id="System" opacity="1"><text font-family="Courier New, monospace" font-size="12" text-anchor="middle" fill="#595f61" x="792" y="260.6552734375"><tspan dy="0" x="792">System</tspan></text></g></a><a href="https://app.icepanel.io/landscapes/pMzFyeYjGnWRGy8yUsah/versions/latest/model/objects?object=ecbz5jtWUf&amp;focus=ecbz5jtWUf" id="Address information sender/receiver" target="_blank"><rect width="192" height="112" rx="8" ry="8" fill-opacity="0.8" fill="#f5f6f6" stroke-opacity="1" stroke-width="1" stroke="#adb3b3" opacity="1" x="1048" y="160"></rect><text font-family="IBM Plex Sans Medium, Arial, sans-serif" font-size="19" font-weight="500" text-anchor="middle" fill="#0c0d0d" opacity="1" x="1144" y="208.62499999999997"><tspan dy="0" x="1144">Address information</tspan></text><text font-family="IBM Plex Sans Medium, Arial, sans-serif" font-size="19" font-weight="500" text-anchor="middle" fill="#0c0d0d" opacity="1" x="1144" y="229.62499999999997"><tspan dy="0" x="1144">sender/receiver</tspan></text><g id="System" opacity="1"><text font-family="Courier New, monospace" font-size="12" text-anchor="middle" fill="#595f61" x="1144" y="260.6552734375"><tspan dy="0" x="1144">System</tspan></text></g></a><a href="https://app.icepanel.io/landscapes/pMzFyeYjGnWRGy8yUsah/versions/latest/model/objects?object=flaOprhQV4&amp;focus=flaOprhQV4" id="Insurance" target="_blank"><rect width="152" height="112" rx="8" ry="8" fill-opacity="0.8" fill="#f5f6f6" stroke-opacity="1" stroke-width="1" stroke="#adb3b3" opacity="1" x="1424" y="152"></rect><text font-family="IBM Plex Sans Medium, Arial, sans-serif" font-size="24" font-weight="500" text-anchor="middle" fill="#0c0d0d" opacity="1" x="1500" y="212.99999999999997"><tspan dy="0" x="1500">Insurance</tspan></text><g id="System" opacity="1"><text font-family="Courier New, monospace" font-size="12" text-anchor="middle" fill="#595f61" x="1500" y="252.6552734375"><tspan dy="0" x="1500">System</tspan></text></g></a><a href="https://app.icepanel.io/landscapes/pMzFyeYjGnWRGy8yUsah/versions/latest/model/objects?object=eMkZ0Y6aXk&amp;focus=eMkZ0Y6aXk" id="Login3" target="_blank"><rect width="136" height="112" rx="8" ry="8" fill-opacity="0.8" fill="#f5f6f6" stroke-opacity="1" stroke-width="1" stroke="#adb3b3" opacity="1" x="56" y="152"></rect><text font-family="IBM Plex Sans Medium, Arial, sans-serif" font-size="24" font-weight="500" text-anchor="middle" fill="#0c0d0d" opacity="1" x="124" y="212.99999999999997"><tspan dy="0" x="124">Login3</tspan></text><g id="System" opacity="1"><text font-family="Courier New, monospace" font-size="12" text-anchor="middle" fill="#595f61" x="124" y="252.6552734375"><tspan dy="0" x="124">System</tspan></text></g></a><a href="https://app.icepanel.io/landscapes/pMzFyeYjGnWRGy8yUsah/versions/latest/model/objects?object=qKK6Iopjbf&amp;focus=qKK6Iopjbf" id="Calculator1" target="_blank"><rect width="200" height="112" rx="8" ry="8" fill-opacity="0.8" fill="#f5f6f6" stroke-opacity="1" stroke-width="1" stroke="#adb3b3" opacity="1" x="1408" y="400"></rect><text font-family="IBM Plex Sans Medium, Arial, sans-serif" font-size="24" font-weight="500" text-anchor="middle" fill="#0c0d0d" opacity="1" x="1508" y="461"><tspan dy="0" x="1508">Calculator1</tspan></text><g id="System" opacity="1"><text font-family="Courier New, monospace" font-size="12" text-anchor="middle" fill="#595f61" x="1508" y="500.6552734375"><tspan dy="0" x="1508">System</tspan></text></g></a><a href="https://app.icepanel.io/landscapes/pMzFyeYjGnWRGy8yUsah/versions/latest/model/objects?object=blJ9HwyUlU&amp;focus=blJ9HwyUlU" id="Payment" target="_blank"><rect width="256" height="128" rx="8" ry="8" fill-opacity="0.8" fill="#f5f6f6" stroke-opacity="1" stroke-width="1" stroke="#adb3b3" opacity="1" x="1880" y="392"></rect><text font-family="IBM Plex Sans Medium, Arial, sans-serif" font-size="24" font-weight="500" text-anchor="middle" fill="#0c0d0d" opacity="1" x="2008" y="461"><tspan dy="0" x="2008">Payment</tspan></text><g id="System" opacity="1"><text font-family="Courier New, monospace" font-size="12" text-anchor="middle" fill="#595f61" x="2008" y="508.6552734375"><tspan dy="0" x="2008">System</tspan></text></g></a><a href="https://app.icepanel.io/landscapes/pMzFyeYjGnWRGy8yUsah/versions/latest/model/objects?object=E4lIdwhwry&amp;focus=E4lIdwhwry" id="shipment" target="_blank"><rect width="256" height="128" rx="8" ry="8" fill-opacity="0.8" fill="#f5f6f6" stroke-opacity="1" stroke-width="1" stroke="#adb3b3" opacity="1" x="1392" y="624"></rect><text font-family="IBM Plex Sans Medium, Arial, sans-serif" font-size="24" font-weight="500" text-anchor="middle" fill="#0c0d0d" opacity="1" x="1519.9999999999998" y="693.0000000000001"><tspan dy="0" x="1519.9999999999998">shipment</tspan></text><g id="System" opacity="1"><text font-family="Courier New, monospace" font-size="12" text-anchor="middle" fill="#595f61" x="1520" y="740.6552734375"><tspan dy="0" x="1520">System</tspan></text></g></a><a href="https://app.icepanel.io/landscapes/pMzFyeYjGnWRGy8yUsah/versions/latest/model/objects?object=vJrd7WW3m9&amp;focus=vJrd7WW3m9" id="Generater label PDF" target="_blank"><rect width="192" height="136" rx="8" ry="8" fill-opacity="0.8" fill="#f5f6f6" stroke-opacity="1" stroke-width="1" stroke="#adb3b3" opacity="1" x="736" y="576"></rect><text font-family="IBM Plex Sans Medium, Arial, sans-serif" font-size="24" font-weight="500" text-anchor="middle" fill="#0c0d0d" opacity="1" x="832" y="636.0000000000001"><tspan dy="0" x="832">Generater label</tspan></text><text font-family="IBM Plex Sans Medium, Arial, sans-serif" font-size="24" font-weight="500" text-anchor="middle" fill="#0c0d0d" opacity="1" x="832" y="662.0000000000001"><tspan dy="0" x="832">PDF</tspan></text><g id="System" opacity="1"><text font-family="Courier New, monospace" font-size="12" text-anchor="middle" fill="#595f61" x="832" y="700.6552734375"><tspan dy="0" x="832">System</tspan></text></g></a><a href="https://app.icepanel.io/landscapes/pMzFyeYjGnWRGy8yUsah/versions/latest/model/objects?object=5qM7RAwXA7&amp;focus=5qM7RAwXA7" id="Print lebal PDF" target="_blank"><rect width="184" height="112" rx="8" ry="8" fill-opacity="0.8" fill="#f5f6f6" stroke-opacity="1" stroke-width="1" stroke="#adb3b3" opacity="1" x="392" y="592"></rect><text font-family="IBM Plex Sans Medium, Arial, sans-serif" font-size="24" font-weight="500" text-anchor="middle" fill="#0c0d0d" opacity="1" x="484" y="653.0000000000001"><tspan dy="0" x="484">Print lebal PDF</tspan></text><g id="System" opacity="1"><text font-family="Courier New, monospace" font-size="12" text-anchor="middle" fill="#595f61" x="484" y="692.6552734375"><tspan dy="0" x="484">System</tspan></text></g></a><a href="https://app.icepanel.io/landscapes/pMzFyeYjGnWRGy8yUsah/versions/latest/model/objects?object=3jkzbVCHO7&amp;focus=3jkzbVCHO7" id="Tracking generator" target="_blank"><rect width="160" height="112" rx="8" ry="8" fill-opacity="0.8" fill="#f5f6f6" stroke-opacity="1" stroke-width="1" stroke="#adb3b3" opacity="1" x="32" y="576"></rect><text font-family="IBM Plex Sans Medium, Arial, sans-serif" font-size="21" font-weight="500" text-anchor="middle" fill="#0c0d0d" opacity="1" x="112.00000000000001" y="624.3749999999999"><tspan dy="0" x="112.00000000000001">Tracking</tspan></text><text font-family="IBM Plex Sans Medium, Arial, sans-serif" font-size="21" font-weight="500" text-anchor="middle" fill="#0c0d0d" opacity="1" x="112" y="647.3749999999999"><tspan dy="0" x="112">generator</tspan></text><g id="System" opacity="1"><text font-family="Courier New, monospace" font-size="12" text-anchor="middle" fill="#595f61" x="112" y="676.6552734375"><tspan dy="0" x="112">System</tspan></text></g></a><a href="https://app.icepanel.io/landscapes/pMzFyeYjGnWRGy8yUsah/versions/latest/model/objects?object=CvxLtfjn3d&amp;focus=CvxLtfjn3d" id="Shipment repository" target="_blank"><rect width="176" height="112" rx="8" ry="8" fill-opacity="0.8" fill="#f5f6f6" stroke-opacity="1" stroke-width="1" stroke="#adb3b3" opacity="1" x="1064" y="608"></rect><text font-family="IBM Plex Sans Medium, Arial, sans-serif" font-size="21" font-weight="500" text-anchor="middle" fill="#0c0d0d" opacity="1" x="1151.9999999999998" y="656.3749999999999"><tspan dy="0" x="1151.9999999999998">Shipment</tspan></text><text font-family="IBM Plex Sans Medium, Arial, sans-serif" font-size="21" font-weight="500" text-anchor="middle" fill="#0c0d0d" opacity="1" x="1152" y="679.3749999999999"><tspan dy="0" x="1152">repository</tspan></text><g id="System" opacity="1"><text font-family="Courier New, monospace" font-size="12" text-anchor="middle" fill="#595f61" x="1152" y="708.6552734375"><tspan dy="0" x="1152">System</tspan></text></g></a><g id="choose"><polygon points="407.7221568768565,143.65501805605737 399.7221568768565,159.65501805605737 415.7221568768565,159.65501805605737 407.7221568768565,143.65501805605737" fill="#adb3b3" opacity="1" transform="matrix(-0.008654509372586041,0.9999625490324724,-0.9999625490324724,-0.008654509372586041,563.1782732647428,-190.46362358741388)"></polygon><circle r="4" fill="#adb3b3" opacity="1" cx="192" cy="208"></circle></g><g id="Sends data to"><polygon points="712,143.99999999999997 704,159.99999999999997 720,159.99999999999997 712,143.99999999999997" fill="#adb3b3" opacity="1" transform="matrix(6.123233995736766e-17,1,-1,6.123233995736766e-17,864,-496)"></polygon><circle r="4" fill="#adb3b3" opacity="1" cx="552" cy="216"></circle></g><g id="Sends data to"><polygon points="1040,143.99999999999994 1032,159.99999999999994 1048,159.99999999999994 1040,143.99999999999994" fill="#adb3b3" opacity="1" transform="matrix(6.123233995736766e-17,1,-1,6.123233995736766e-17,1192,-824)"></polygon><circle r="4" fill="#adb3b3" opacity="1" cx="864" cy="216"></circle></g><g id="Sends data to"><polygon points="1416.092008616924,136.11526760821917 1408.092008616924,152.11526760821917 1424.092008616924,152.11526760821917 1416.092008616924,136.11526760821917" fill="#adb3b3" opacity="1" transform="matrix(0.0028783761788437542,0.9999958574667063,-0.9999958574667063,0.0028783761788437542,1556.0386582415374,-1208.4779333524916)"></polygon><circle r="4" fill="#adb3b3" opacity="1" cx="1240" cy="216"></circle></g><g id="calculate price"><polygon points="1444.1523214684948,319.7985557291506 1436.1523214684948,335.7985557291506 1452.1523214684948,335.7985557291506 1444.1523214684948,319.7985557291506" fill="#adb3b3" opacity="1" transform="matrix(-0.9999800279780885,0.006320098491434649,-0.006320098491434649,-0.9999800279780885,2954.1446371963143,710.6649837970733)"></polygon><circle r="4" fill="#adb3b3" opacity="1" cx="1500" cy="264"></circle></g><g id="request"><polygon points="1872,383.9999999999999 1864,399.9999999999999 1880,399.9999999999999 1872,383.9999999999999" fill="#adb3b3" opacity="1" transform="matrix(6.123233995736766e-17,1,-1,6.123233995736766e-17,2264,-1416)"></polygon><circle r="4" fill="#adb3b3" opacity="1" cx="1608" cy="456"></circle></g><g id="success"><polygon points="1591.8261513438624,679.7817704609452 1583.8261513438624,695.7817704609452 1599.8261513438624,695.7817704609452 1591.8261513438624,679.7817704609452" fill="#adb3b3" opacity="1" transform="matrix(-0.005443884039168072,-0.9999851819534968,0.9999851819534968,-0.005443884039168072,976.8940195553727,2283.503216720257)"></polygon><circle r="4" fill="#adb3b3" opacity="1" cx="2008" cy="520"></circle></g><g id="Sends data to"><polygon points="519.8243159809468,639.7794567158646 511.82431598094684,655.7794567158646 527.8243159809468,655.7794567158646 519.8243159809468,639.7794567158646" fill="#adb3b3" opacity="1" transform="matrix(-0.005501475518625813,-0.9999848667690516,0.9999848667690516,-0.005501475518625813,-60.909974037234406,1171.3361803779626)"></polygon><circle r="4" fill="#adb3b3" opacity="1" cx="736" cy="644"></circle></g><g id="Sends data to"><polygon points="136.14023809889997,624.1747041903506 128.14023809889997,640.1747041903506 144.14023809889997,640.1747041903506 136.14023809889997,624.1747041903506" fill="#adb3b3" opacity="1" transform="matrix(0.004375261962305514,-0.9999904284955737,0.9999904284955737,0.004375261962305514,-432.7643791047001,765.4080071909311)"></polygon><circle r="4" fill="#adb3b3" opacity="1" cx="392" cy="648"></circle></g><g id="Sends data to"><polygon points="1184.4284542879448,656.530065346019 1176.4284542879448,672.530065346019 1192.4284542879448,672.530065346019 1184.4284542879448,656.530065346019" fill="#adb3b3" opacity="1" transform="matrix(0.013322633829985933,-0.9999112497756149,0.9999112497756149,0.013322633829985933,567.7484952503013,1839.5766263378769)"></polygon><circle r="4" fill="#adb3b3" opacity="1" cx="1392" cy="688"></circle></g><g id="Sends data to"><polygon points="872.4359583082785,636.5392519177982 864.4359583082785,652.5392519177982 880.4359583082785,652.5392519177982 872.4359583082785,636.5392519177982" fill="#adb3b3" opacity="1" transform="matrix(0.013554794300437954,-0.9999081295556471,0.9999081295556471,0.013554794300437954,279.6935372709494,1507.7276486052187)"></polygon><circle r="4" fill="#adb3b3" opacity="1" cx="1064" cy="664"></circle></g></g></svg>