<svg xmlns="http://www.w3.org/2000/svg" xmlns:xlink="http://www.w3.org/1999/xlink" version="1.1" width="1120" height="576"><g id="Tracking store service App Diagram"><g id="Tracking store service"><rect width="768" height="512" rx="8" ry="8" fill-opacity="0.02" fill="#000000" stroke-opacity="1" stroke-width="2" stroke="#cfd2d2" opacity="1" x="320" y="32"></rect><text font-family="IBM Plex Sans Medium, Arial, sans-serif" font-size="15" font-weight="500" fill="#0c0d0d" opacity="1" x="336" y="63.375"><tspan dy="0" x="336">Tracking store service</tspan></text><g opacity="1"><text font-family="IBM Plex Sans, Arial, sans-serif" font-size="14" text-anchor="middle" fill="#595f61" x="704.0000000000001" y="509.25"><tspan dy="0" x="704.0000000000001">Cassandra / NoSQL</tspan></text></g><g id="System" opacity="1"><text font-family="Courier New, monospace" font-size="12" text-anchor="middle" fill="#595f61" x="704" y="532.6552734375"><tspan dy="0" x="704">System</tspan></text></g></g><g id="Sends data to"><polyline points="176,96 200,96 216.94,96.81 229.72,99.06 239.09,102.49000000000001 245.81,106.84 250.65,111.84 261.35,128.16 266.19,133.16 272.90999999999997,137.51 282.28,140.94 295.06,143.19 312,144 336,144" fill="none" stroke-width="1" stroke="#adb3b3" opacity="1"></polyline></g><g id="Sends data to"><rect width="99.836" height="22.2" x="206.082" y="108.90000000000003" rx="4" ry="4" fill-opacity="0.8" fill="#e5e7e8" stroke-opacity="1" stroke-width="1" stroke="#cfd2d2" opacity="0.8"></rect><g opacity="1" fill="#434647"><text font-family="IBM Plex Sans Medium, Arial, sans-serif" font-size="14" text-anchor="middle" x="256" y="125.25000000000003"><tspan dy="0" x="256">Sends data to</tspan></text></g></g><g id="Sends data to"><polyline points="520,144 561.52,143.73 572.5699999999999,142.99 578.99,141.93 589.01,138.07 595.4300000000001,137.01 606.48,136.27 648,136" fill="none" stroke-width="1" stroke="#adb3b3" opacity="1"></polyline></g><g id="Sends data to"><rect width="99.836" height="22.2" x="534.082" y="128.9" rx="4" ry="4" fill-opacity="0.8" fill="#e5e7e8" stroke-opacity="1" stroke-width="1" stroke="#cfd2d2" opacity="0.8"></rect><g opacity="1" fill="#434647"><text font-family="IBM Plex Sans Medium, Arial, sans-serif" font-size="14" text-anchor="middle" x="584" y="145.25"><tspan dy="0" x="584">Sends data to</tspan></text></g></g><g id="Sends data to"><polyline points="808,136 849.89,135.66 860.16,134.75 865.35,133.47 870.65,130.53 875.84,129.25 886.11,128.34 928,128" fill="none" stroke-width="1" stroke="#adb3b3" opacity="1"></polyline></g><g id="Sends data to"><rect width="99.836" height="22.2" x="818.082" y="120.9" rx="4" ry="4" fill-opacity="0.8" fill="#e5e7e8" stroke-opacity="1" stroke-width="1" stroke="#cfd2d2" opacity="0.8"></rect><g opacity="1" fill="#434647"><text font-family="IBM Plex Sans Medium, Arial, sans-serif" font-size="14" text-anchor="middle" x="868" y="137.25"><tspan dy="0" x="868">Sends data to</tspan></text></g></g><g id="Sends data to"><polyline points="996,184 995.24,240 993.29,258.58 987.96,279.31 985.62,293.4 984.2,317.95 984,360" fill="none" stroke-width="1" stroke="#adb3b3" opacity="1"></polyline></g><g id="Sends data to"><rect width="99.836" height="22.2" x="939.9304074408741" y="260.8654059569756" rx="4" ry="4" fill-opacity="0.8" fill="#e5e7e8" stroke-opacity="1" stroke-width="1" stroke="#cfd2d2" opacity="0.8"></rect><g opacity="1" fill="#434647"><text font-family="IBM Plex Sans Medium, Arial, sans-serif" font-size="14" text-anchor="middle" x="989.8484074408741" y="277.21540595697564"><tspan dy="0" x="989.8484074408741">Sends data to</tspan></text></g></g><g id="Sends data to"><polyline points="896,416 828.01,416.54 800.82,417.89 765.84,421.54 742.54,423.09 705.01,423.94 664,424" fill="none" stroke-width="1" stroke="#adb3b3" opacity="1"></polyline></g><g id="Sends data to"><rect width="99.836" height="22.2" x="730.0872860380215" y="408.9619184094117" rx="4" ry="4" fill-opacity="0.8" fill="#e5e7e8" stroke-opacity="1" stroke-width="1" stroke="#cfd2d2" opacity="0.8"></rect><g opacity="1" fill="#434647"><text font-family="IBM Plex Sans Medium, Arial, sans-serif" font-size="14" text-anchor="middle" x="780.0052860380215" y="425.3119184094117"><tspan dy="0" x="780.0052860380215">Sends data to</tspan></text></g></g><a href="https://app.icepanel.io/landscapes/pMzFyeYjGnWRGy8yUsah/versions/latest/model/objects?object=3Kg9Vl3f7k&amp;focus=3Kg9Vl3f7k" id="Tracking API" target="_blank"><rect width="160" height="112" rx="8" ry="8" fill-opacity="0.8" fill="#f5f6f6" stroke-opacity="1" stroke-width="1" stroke="#adb3b3" opacity="1" x="504" y="368"></rect><text font-family="IBM Plex Sans Medium, Arial, sans-serif" font-size="24" font-weight="500" text-anchor="middle" fill="#0c0d0d" opacity="1" x="584" y="429"><tspan dy="0" x="584">Tracking API</tspan></text><g id="System" opacity="1"><text font-family="Courier New, monospace" font-size="12" text-anchor="middle" fill="#595f61" x="584" y="468.6552734375"><tspan dy="0" x="584">System</tspan></text></g></a><a href="https://app.icepanel.io/landscapes/pMzFyeYjGnWRGy8yUsah/versions/latest/model/objects?object=gGVzG8Q1mf&amp;focus=gGVzG8Q1mf" id="Update Ingestion Handler" target="_blank"><rect width="184" height="112" rx="8" ry="8" fill-opacity="0.8" fill="#f5f6f6" stroke-opacity="1" stroke-width="1" stroke="#adb3b3" opacity="1" x="336" y="88"></rect><text font-family="IBM Plex Sans Medium, Arial, sans-serif" font-size="21" font-weight="500" text-anchor="middle" fill="#0c0d0d" opacity="1" x="427.99999999999994" y="136.375"><tspan dy="0" x="427.99999999999994">Update Ingestion</tspan></text><text font-family="IBM Plex Sans Medium, Arial, sans-serif" font-size="21" font-weight="500" text-anchor="middle" fill="#0c0d0d" opacity="1" x="428" y="159.37500000000003"><tspan dy="0" x="428">Handler</tspan></text><g id="System" opacity="1"><text font-family="Courier New, monospace" font-size="12" text-anchor="middle" fill="#595f61" x="428" y="188.6552734375"><tspan dy="0" x="428">System</tspan></text></g></a><a href="https://app.icepanel.io/landscapes/pMzFyeYjGnWRGy8yUsah/versions/latest/model/objects?object=lRH681C3mv&amp;focus=lRH681C3mv" id="Event Processor" target="_blank"><rect width="160" height="112" rx="8" ry="8" fill-opacity="0.8" fill="#f5f6f6" stroke-opacity="1" stroke-width="1" stroke="#adb3b3" opacity="1" x="648" y="80"></rect><text font-family="IBM Plex Sans Medium, Arial, sans-serif" font-size="21" font-weight="500" text-anchor="middle" fill="#0c0d0d" opacity="1" x="728" y="128.375"><tspan dy="0" x="728">Event</tspan></text><text font-family="IBM Plex Sans Medium, Arial, sans-serif" font-size="21" font-weight="500" text-anchor="middle" fill="#0c0d0d" opacity="1" x="728" y="151.375"><tspan dy="0" x="728">Processor</tspan></text><g id="System" opacity="1"><text font-family="Courier New, monospace" font-size="12" text-anchor="middle" fill="#595f61" x="728" y="180.6552734375"><tspan dy="0" x="728">System</tspan></text></g></a><a href="https://app.icepanel.io/landscapes/pMzFyeYjGnWRGy8yUsah/versions/latest/model/objects?object=mFUOy9OVdn&amp;focus=mFUOy9OVdn" id="Status Aggregator" target="_blank"><rect width="176" height="112" rx="8" ry="8" fill-opacity="0.8" fill="#f5f6f6" stroke-opacity="1" stroke-width="1" stroke="#adb3b3" opacity="1" x="896" y="360"></rect><text font-family="IBM Plex Sans Medium, Arial, sans-serif" font-size="21" font-weight="500" text-anchor="middle" fill="#0c0d0d" opacity="1" x="983.9999999999999" y="408.375"><tspan dy="0" x="983.9999999999999">Status</tspan></text><text font-family="IBM Plex Sans Medium, Arial, sans-serif" font-size="21" font-weight="500" text-anchor="middle" fill="#0c0d0d" opacity="1" x="984" y="431.375"><tspan dy="0" x="984">Aggregator</tspan></text><g id="System" opacity="1"><text font-family="Courier New, monospace" font-size="12" text-anchor="middle" fill="#595f61" x="984" y="460.6552734375"><tspan dy="0" x="984">System</tspan></text></g></a><a href="https://app.icepanel.io/landscapes/pMzFyeYjGnWRGy8yUsah/versions/latest/model/objects?object=WzJga3NMOg&amp;focus=WzJga3NMOg" id="Tracking Repository" target="_blank"><rect width="136" height="112" rx="8" ry="8" fill-opacity="0.8" fill="#f5f6f6" stroke-opacity="1" stroke-width="1" stroke="#adb3b3" opacity="1" x="928" y="72"></rect><text font-family="IBM Plex Sans Medium, Arial, sans-serif" font-size="21" font-weight="500" text-anchor="middle" fill="#0c0d0d" opacity="1" x="996" y="120.375"><tspan dy="0" x="996">Tracking</tspan></text><text font-family="IBM Plex Sans Medium, Arial, sans-serif" font-size="21" font-weight="500" text-anchor="middle" fill="#0c0d0d" opacity="1" x="996.0000000000001" y="143.375"><tspan dy="0" x="996.0000000000001">Repository</tspan></text><g id="System" opacity="1"><text font-family="Courier New, monospace" font-size="12" text-anchor="middle" fill="#595f61" x="996" y="172.6552734375"><tspan dy="0" x="996">System</tspan></text></g></a><a href="https://app.icepanel.io/landscapes/pMzFyeYjGnWRGy8yUsah/versions/latest/model/objects?object=e5ovj0MiP4&amp;focus=e5ovj0MiP4" id="scanner device" target="_blank"><rect width="144" height="112" rx="8" ry="8" fill-opacity="0.8" fill="#f5f6f6" stroke-opacity="1" stroke-width="1" stroke="#adb3b3" opacity="1" x="32" y="40"></rect><text font-family="IBM Plex Sans Medium, Arial, sans-serif" font-size="21" font-weight="500" text-anchor="middle" fill="#0c0d0d" opacity="1" x="104" y="88.375"><tspan dy="0" x="104">scanner</tspan></text><text font-family="IBM Plex Sans Medium, Arial, sans-serif" font-size="21" font-weight="500" text-anchor="middle" fill="#0c0d0d" opacity="1" x="104" y="111.375"><tspan dy="0" x="104">device</tspan></text><g id="System" opacity="1"><text font-family="Courier New, monospace" font-size="12" text-anchor="middle" fill="#595f61" x="104" y="140.6552734375"><tspan dy="0" x="104">System</tspan></text></g></a><g id="Sends data to"><polygon points="328,72 320,88 336,88 328,72" fill="#adb3b3" opacity="1" transform="matrix(6.123233995736766e-17,1,-1,6.123233995736766e-17,408,-184)"></polygon><circle r="4" fill="#adb3b3" opacity="1" cx="176" cy="96"></circle></g><g id="Sends data to"><polygon points="640.2075806509511,64.26078668711261 632.2075806509511,80.26078668711261 648.2075806509511,80.26078668711261 640.2075806509511,64.26078668711261" fill="#adb3b3" opacity="1" transform="matrix(0.006502752682025101,0.9999788568802624,-0.9999788568802624,0.006502752682025101,708.0963164514745,-504.6119166683951)"></polygon><circle r="4" fill="#adb3b3" opacity="1" cx="520" cy="144"></circle></g><g id="Sends data to"><polygon points="920.2589288130388,56.32570311792005 912.2589288130388,72.32570311792006 928.2589288130388,72.32570311792006 920.2589288130388,56.32570311792005" fill="#adb3b3" opacity="1" transform="matrix(0.008116228249659324,0.9999670628770727,-0.9999670628770727,0.008116228249659324,976.8548163962788,-792.6857703944031)"></polygon><circle r="4" fill="#adb3b3" opacity="1" cx="808" cy="136"></circle></g><g id="Sends data to"><polygon points="919.8862134128298,280.1526504698888 911.8862134128298,296.1526504698888 927.8862134128298,296.1526504698888 919.8862134128298,280.1526504698888" fill="#adb3b3" opacity="1" transform="matrix(-0.9999886892702172,-0.004756188771796978,0.004756188771796978,-0.9999886892702172,1902.543349937885,644.5246342185263)"></polygon><circle r="4" fill="#adb3b3" opacity="1" cx="996" cy="184"></circle></g><g id="Sends data to"><polygon points="607.9532078872185,415.94144350244864 599.9532078872185,431.94144350244864 615.9532078872185,431.94144350244864 607.9532078872185,415.94144350244864" fill="#adb3b3" opacity="1" transform="matrix(-0.0014630562249193923,-0.9999989297326686,0.9999989297326686,-0.0014630562249193923,248.94847139134924,1032.5611029328793)"></polygon><circle r="4" fill="#adb3b3" opacity="1" cx="896" cy="416"></circle></g></g></svg>